<?xml version="1.0" encoding="UTF-8"?>
<svg width="80px" height="70px" viewBox="0 0 80 70" version="1.1" xmlns="http://www.w3.org/2000/svg" xmlns:xlink="http://www.w3.org/1999/xlink">
    <!-- Generator: sketchtool 58 (101010) - https://sketch.com -->
    <title>770B6F54-B43A-4941-B61A-5ADD79E4F512</title>
    <desc>Created with sketchtool.</desc>
    <g id="Design-Proposal" stroke="none" stroke-width="1" fill="none" fill-rule="evenodd">
        <g id="01-Home-Page" transform="translate(-1310.000000, -882.000000)" fill="#3F87C8" fill-rule="nonzero">
            <g id="CTA3" transform="translate(1235.000000, 856.000000)">
                <g id="CreditCard" transform="translate(75.000000, 26.000000)">
                    <path d="M72.6444444,0 L16.3333333,0 C12.4735333,0 9.33333333,3.1402 9.33333333,7 L9.33333333,18.6666667 L7,18.6666667 C3.1402,18.6666667 0,21.8068667 0,25.6666667 L0,63 C0,66.8598 3.1402,70 7,70 L63.3111111,70 C67.1709111,70 70.3111111,66.8598 70.3111111,63 L70.3111111,51.3333333 L72.6444444,51.3333333 C76.5042444,51.3333333 79.6444444,48.1931333 79.6444444,44.3333333 L79.6444444,7 C79.6444444,3.1402 76.5042444,0 72.6444444,0 Z M65.6444444,63 C65.6444444,64.2866 64.5977111,65.3333333 63.3111111,65.3333333 L7,65.3333333 C5.7134,65.3333333 4.66666667,64.2866 4.66666667,63 L4.66666667,42 L65.6444444,42 L65.6444444,63 Z M65.6444444,37.3333333 L4.66666667,37.3333333 L4.66666667,32.6666667 L65.6444444,32.6666667 L65.6444444,37.3333333 Z M65.6444444,28 L4.66666667,28 L4.66666667,25.6666667 C4.66666667,24.3800667 5.7134,23.3333333 7,23.3333333 L63.3111111,23.3333333 C64.5977111,23.3333333 65.6444444,24.3800667 65.6444444,25.6666667 L65.6444444,28 Z M74.9777778,44.3333333 C74.9777778,45.6199333 73.9310444,46.6666667 72.6444444,46.6666667 L70.3111111,46.6666667 L70.3111111,25.6666667 C70.3111111,21.8068667 67.1709111,18.6666667 63.3111111,18.6666667 L14,18.6666667 L14,7 C14,5.7134 15.0467333,4.66666667 16.3333333,4.66666667 L72.6444444,4.66666667 C73.9310444,4.66666667 74.9777778,5.7134 74.9777778,7 L74.9777778,44.3333333 Z" id="Shape"></path>
                    <path d="M25.6666667,46.6666667 C23.8751333,46.6666667 22.2394667,47.3438 21,48.4547778 C19.7605333,47.3438 18.1248667,46.6666667 16.3333333,46.6666667 C12.4735333,46.6666667 9.33333333,49.8068667 9.33333333,53.6666667 C9.33333333,57.5264667 12.4735333,60.6666667 16.3333333,60.6666667 C18.1248667,60.6666667 19.7605333,59.9895333 21,58.8785556 C22.2394667,59.9893778 23.8751333,60.6666667 25.6666667,60.6666667 C29.5264667,60.6666667 32.6666667,57.5264667 32.6666667,53.6666667 C32.6666667,49.8068667 29.5264667,46.6666667 25.6666667,46.6666667 Z M16.3333333,56 C15.0467333,56 14,54.9532667 14,53.6666667 C14,52.3800667 15.0467333,51.3333333 16.3333333,51.3333333 C17.6199333,51.3333333 18.6666667,52.3800667 18.6666667,53.6666667 C18.6666667,54.9532667 17.6199333,56 16.3333333,56 Z M25.6666667,56 C24.3800667,56 23.3333333,54.9532667 23.3333333,53.6666667 C23.3333333,52.3800667 24.3800667,51.3333333 25.6666667,51.3333333 C26.9532667,51.3333333 28,52.3800667 28,53.6666667 C28,54.9532667 26.9532667,56 25.6666667,56 Z" id="Shape"></path>
                    <path d="M44.4888889,51.3333333 L39.8222222,51.3333333 C38.5336,51.3333333 37.4888889,52.3780444 37.4888889,53.6666667 C37.4888889,54.9552889 38.5336,56 39.8222222,56 L44.4888889,56 C45.7775111,56 46.8222222,54.9552889 46.8222222,53.6666667 C46.8222222,52.3780444 45.7775111,51.3333333 44.4888889,51.3333333 Z" id="Path"></path>
                    <path d="M58.6444444,51.3333333 L53.9777778,51.3333333 C52.6891556,51.3333333 51.6444444,52.3780444 51.6444444,53.6666667 C51.6444444,54.9552889 52.6891556,56 53.9777778,56 L58.6444444,56 C59.9330667,56 60.9777778,54.9552889 60.9777778,53.6666667 C60.9777778,52.3780444 59.9330667,51.3333333 58.6444444,51.3333333 Z" id="Path"></path>
                </g>
            </g>
        </g>
    </g>
</svg>