<?xml version="1.0" encoding="UTF-8"?>
<svg width="64px" height="64px" viewBox="0 0 64 64" version="1.1" xmlns="http://www.w3.org/2000/svg" xmlns:xlink="http://www.w3.org/1999/xlink">
    <!-- Generator: sketchtool 58 (101010) - https://sketch.com -->
    <title>B0B28297-E1F6-428D-BFF6-EC971B5B63A9</title>
    <desc>Created with sketchtool.</desc>
    <g id="Design-Proposal" stroke="none" stroke-width="1" fill="none" fill-rule="evenodd">
        <g id="01-Home" transform="translate(-389.000000, -1128.000000)">
            <g id="Footer" transform="translate(0.000000, 1080.000000)">
                <g id="DigiBank-Logomark" transform="translate(389.000000, 48.000000)">
                    <g id="Logo/DigibankLogomark/Blue">
                        <g id="DIGIBANK_Logomark_BLUE">
                            <polygon id="Path" fill="#3F87C8" fill-rule="nonzero" points="0.0623376608 40.9142853 0.675324655 40.9870126 0.675324655 42.5246749 0.270129862 42.6389606 0.0623376608 42.6389606"></polygon>
                            <path d="M2.98181817,43.2415588 C11.916883,43.2519484 20.8519479,43.2415588 29.7870128,43.2519484 C33.4961037,43.2519484 37.2779219,42.9090913 40.9870128,42.9298705 C44.5090907,42.9506498 47.7194802,42.6493511 51.0129867,41.3298706 C51.6363633,41.0805199 52.2285711,40.8519485 52.7584413,40.4363641 C53.3298698,39.9792212 53.7766231,39.7922082 54.3792205,39.3246758 C56.7064932,37.5168836 58.7012984,35.2311693 60.6441555,32.6337668 C60.7792204,32.5090915 60.8831165,32.3428577 61.0077919,32.2181824 C68.5714282,45.7246757 59.4181815,62.8779222 43.9896101,63.6363637 C35.9480517,64.0311689 27.8545453,63.9584417 19.8129869,63.6467533 C8.75844151,63.2207793 0.571428568,54.6805197 0.0415584415,43.1272731" id="Path" fill="#0E4F79" fill-rule="nonzero"></path>
                            <path d="M46.6389629,0.831168817 C42.2961056,0.249350642 37.9220795,0.0831168782 33.5480533,0.103896099 L33.3506507,0.103896099 C32.4987026,0.103896099 31.6467545,0.114285709 30.8051961,0.13506493 L0.0415584415,0.519480509 L0.124675328,18.7428569 C0.124675328,18.7844153 0.114285717,18.8155842 0.103896106,18.8571426 L0.124675328,20.1974023 C0.0935064956,20.7064932 0.103896106,21.2155842 0.14545455,21.7246751 C14.4623383,21.7038958 28.7896116,21.485714 43.1064953,21.7454543 C49.361041,21.85974 54.7324698,24.6337659 58.8155868,29.58961 C59.4805219,30.3999996 60.3013012,31.7194801 61.0493531,32.2701295 L61.0493531,32.2701295 L61.0597428,32.2805191 L61.1844181,32.1038957 L61.1844181,32.1038957 L61.1844181,32.1038957 C61.3506519,31.8441554 61.5168856,31.4597399 61.6311714,31.2623373 C68.2285742,19.4909088 60.0519505,2.62857139 46.6389629,0.831168817 Z" id="Path" fill="#C9DFEF" fill-rule="nonzero"></path>
                            <path d="M58.3376648,35.9584419 L63.8233791,28.6649353" id="Path"></path>
                            <path d="M61.0701272,32.2805202 L61.0285687,32.207793 C60.8831142,31.9480527 60.7584389,31.6675332 60.6129843,31.4181825 C60.5298675,31.272728 60.436361,31.1376631 60.3324649,31.0129877 C60.2285688,30.8779228 60.1142831,30.7428579 60.010387,30.6077929 C59.6155818,30.1194812 59.2415558,29.6415591 58.8467507,29.1532474 L58.836361,29.1428578 C54.7532443,24.1766239 49.381816,21.4129874 43.1272708,21.2987017 C33.1948037,21.1220783 23.2623366,21.1636368 13.3402592,21.2155848 L12.8415579,21.2155848 L5.2259738,21.2155848 L5.2259738,21.2155848 L0.0831168848,21.1636368 L0.0727272749,22.1298706 L0.0727272749,22.1298706 C0.0727272749,22.2129875 0.0727272749,22.2961043 0.0727272749,22.3688316 L0.0727272749,22.4415589 C0.0935064948,25.7038967 0.103896105,28.9662344 0.124675325,32.2285722 C0.103896105,35.4909099 0.0935064948,38.7428581 0.0727272749,42.0051959 L0.0727272749,42.0779231 C0.0727272749,42.16104 0.0727272749,42.2441569 0.0727272749,42.3168842 L0.0727272749,42.3168842 L0.0831168848,43.283118 L5.2259738,43.2311699 L6.64935036,43.2311699 C18.805194,43.283118 30.9714272,43.4077933 43.1168812,43.1896115 C49.3714264,43.0753258 54.7428547,40.3012997 58.8259714,35.3350658 L58.836361,35.3246762 C59.2311662,34.8363645 59.6051922,34.3480528 59.9999974,33.8701307 C60.1662311,33.6727281 60.3324649,33.4753255 60.488309,33.2675333 C60.5298675,33.2051956 60.5714259,33.1428579 60.6129843,33.0805203 C60.6545428,33.0181826 60.7064908,32.9350657 60.7584389,32.8519488 C60.8103869,32.7792216 60.862335,32.6857151 60.914283,32.6025982 C60.9662311,32.5090917 61.0077895,32.4259748 61.049348,32.3428579 C61.049348,32.3220787 61.049348,32.3012995 61.0701272,32.2805202 Z" id="Path" fill="#3F87C8" fill-rule="nonzero"></path>
                        </g>
                    </g>
                </g>
            </g>
        </g>
    </g>
</svg>