<?xml version="1.0" encoding="UTF-8"?>
<svg width="80px" height="71px" viewBox="0 0 80 71" version="1.1" xmlns="http://www.w3.org/2000/svg" xmlns:xlink="http://www.w3.org/1999/xlink">
    <!-- Generator: sketchtool 58 (101010) - https://sketch.com -->
    <title>15B40C89-95F7-4A51-AB98-B3CB05E50DDB</title>
    <desc>Created with sketchtool.</desc>
    <g id="Design-Proposal" stroke="none" stroke-width="1" fill="none" fill-rule="evenodd">
        <g id="01-Home-Page" transform="translate(-920.000000, -882.000000)" fill="#3F87C8" fill-rule="nonzero">
            <g id="CTA2" transform="translate(845.000000, 856.000000)">
                <g id="Suitcase" transform="translate(75.000000, 26.000000)">
                    <path d="M77.6708984,9.37561031 C77.6660156,9.37561031 77.6611328,9.375 77.65625,9.375 L56.40625,9.375 L56.40625,7.03125 C56.40625,3.15429688 53.2519531,0 49.375,0 L30.625,0 C26.7480469,0 23.59375,3.15429688 23.59375,7.03125 L23.59375,9.375 L2.34375,9.375 C1.03881844,9.375 0,10.4443359 0,11.71875 L0,63.28125 C0,67.1582031 3.15429688,70.3125 7.03125,70.3125 L72.96875,70.3125 C76.8457031,70.3125 80,67.1582031 80,63.28125 L80,11.7681884 C80,11.7651367 80,11.762085 80,11.7590331 C79.9102783,10.2197266 78.9636231,9.38415531 77.6708984,9.37561031 Z M28.28125,7.03125 C28.28125,5.73913578 29.3328858,4.6875 30.625,4.6875 L49.375,4.6875 C50.6671142,4.6875 51.71875,5.73913578 51.71875,7.03125 L51.71875,9.375 L28.28125,9.375 L28.28125,7.03125 Z M74.4042969,14.0625 L67.1258545,35.8972169 C66.8066406,36.8560791 65.9130859,37.5 64.9029541,37.5 L51.71875,37.5 L51.71875,35.15625 C51.71875,33.8616944 50.6695556,32.8125 49.375,32.8125 L30.625,32.8125 C29.3304444,32.8125 28.28125,33.8616944 28.28125,35.15625 L28.28125,37.5 L15.0970459,37.5 C14.0869141,37.5 13.1933594,36.8560791 12.8741455,35.8972169 L5.59570312,14.0625 L74.4042969,14.0625 Z M47.03125,37.5 L47.03125,42.1875 L32.96875,42.1875 L32.96875,37.5 L47.03125,37.5 Z M75.3125,63.28125 C75.3125,64.5733642 74.2608642,65.625 72.96875,65.625 L7.03125,65.625 C5.73913578,65.625 4.6875,64.5733642 4.6875,63.28125 L4.6875,26.1614991 L8.42712406,37.3797608 C9.38537594,40.2557373 12.06604,42.1875 15.0970459,42.1875 L28.28125,42.1875 L28.28125,44.53125 C28.28125,45.8258056 29.3304444,46.875 30.625,46.875 L49.375,46.875 C50.6695556,46.875 51.71875,45.8258056 51.71875,44.53125 L51.71875,42.1875 L64.9029541,42.1875 C67.93396,42.1875 70.6146241,40.2557373 71.5728759,37.3797608 L75.3125,26.1614991 L75.3125,63.28125 Z" id="Shape"></path>
                </g>
            </g>
        </g>
    </g>
</svg>