<?xml version="1.0" encoding="utf-8"?>
<!-- Generator: Adobe Illustrator 23.1.1, SVG Export Plug-In . SVG Version: 6.00 Build 0)  -->
<svg version="1.1" id="Layer_1" xmlns="http://www.w3.org/2000/svg" xmlns:xlink="http://www.w3.org/1999/xlink" x="0px" y="0px"
	 viewBox="0 0 2000 500" style="enable-background:new 0 0 2000 500;" xml:space="preserve">
<style type="text/css">
	.st0{fill:#3F87C8;}
	.st1{fill:#0E4F79;}
	.st2{fill:#C9DFEF;}
	.st3{fill:none;}
	.st4{enable-background:new    ;}
	.st5{fill:#0A456D;}
	.st6{fill:#A4C7D8;}
</style>
<g>
	<g>
		<title>dblogo</title>
		<g>
			<polygon class="st0" points="19.6,316.9 24.2,317.4 24.2,329 21.2,329.7 19.6,329.7 			"/>
			<path class="st1" d="M41.5,334.3c67,0.1,134.1,0,201.1,0.1c27.8,0,56.2-2.6,84-2.4c26.4,0.2,50.5-2.1,75.2-12
				c4.7-1.9,9.1-3.6,13.1-6.7c4.3-3.4,7.6-4.8,12.2-8.3c17.5-13.6,32.4-30.7,47-50.2c1-0.9,1.8-2.2,2.7-3.1
				c56.7,101.3-11.9,230-127.7,235.7c-60.3,3-121.1,2.4-181.4,0.1c-82.9-3.2-144.4-67.3-148.3-154"/>
			<path class="st2" d="M369,16.1c-32.6-4.4-65.4-5.6-98.2-5.5h-1.5c-6.4,0-12.8,0.1-19.1,0.2l-230.8,3L20,150.5
				c0,0.3-0.1,0.5-0.2,0.9l0.2,10.1c-0.2,3.8-0.2,7.6,0.2,11.5c107.4-0.2,214.9-1.8,322.3,0.2c46.9,0.9,87.2,21.7,117.9,58.9
				c5,6.1,11.1,16,16.8,20.1l0,0l0.1,0.1l0.9-1.3l0,0v-0.1c1.2-1.9,2.5-4.8,3.4-6.3C531,156.1,469.7,29.6,369,16.1z"/>
			<path class="st3" d="M456.8,279.6"/>
			<path class="st0" d="M477.3,252l-0.3-0.5c-1.1-1.9-2-4.1-3.1-5.9c-0.6-1.1-1.3-2.1-2.1-3c-0.8-1-1.6-2-2.4-3
				c-3-3.7-5.8-7.2-8.7-10.9l-0.1-0.1c-30.6-37.3-70.9-58-117.9-58.9c-74.5-1.3-149-1-223.5-0.6h-3.7H58.3l0,0l-38.6-0.4l-0.1,7.2
				l0,0c0,0.6,0,1.2,0,1.8v0.5c0.2,24.5,0.2,49,0.4,73.4c-0.2,24.5-0.2,48.9-0.4,73.4v0.5c0,0.6,0,1.2,0,1.8l0,0l0.1,7.2l38.6-0.4
				H69c91.2,0.4,182.5,1.3,273.6-0.3c46.9-0.9,87.2-21.7,117.9-58.9l0.1-0.1c3-3.7,5.8-7.3,8.7-10.9c1.2-1.5,2.5-3,3.7-4.5
				c0.3-0.5,0.6-0.9,0.9-1.4s0.7-1.1,1.1-1.7s0.8-1.2,1.2-1.9c0.4-0.7,0.7-1.3,1-1.9C477.2,252.3,477.2,252.2,477.3,252z"/>
		</g>
	</g>
</g>
<g>
	<g>
		<g class="st4">
			<path class="st0" d="M679.4,147.4c11.1,10.8,16.6,26.5,16.6,46.8c0,20.9-5.5,37-16.6,48c-11.1,11.1-26.8,16.9-47.1,16.9h-40.2
				V131.4h40.2C652.6,131.4,668.3,136.6,679.4,147.4z M672.1,235.8c9-9.6,13.7-23.6,13.7-41.6c0-17.2-4.7-30.6-13.7-40.2
				c-9-9.3-22.1-14-39.3-14h-31.4v110h31.4C650,250.4,663.1,245.4,672.1,235.8z"/>
			<path class="st0" d="M815.3,259.1h-9.6V131.4h9.6V259.1z"/>
			<path class="st0" d="M1035,196.6v62.5h-7.9l-0.3-22.4c-3.5,7.9-9,13.7-16.3,18c-7.6,4.1-16.6,6.4-27.6,6.4
				c-11.6,0-21.8-2.6-30.6-8.1c-8.7-5.2-15.4-13.1-20.1-23s-7-21.5-7-34.9s2.3-25,7.3-34.9c4.9-9.9,11.6-17.5,20.4-23
				c8.7-5.2,18.9-8.1,30.6-8.1c13.1,0,23.6,2.6,32,7.9c8.1,5.2,14.5,13.1,18.6,23.6l-9,4.7c-2.9-9-7.9-15.7-15.1-20.4
				c-7-4.7-16-7-26.8-7c-9.6,0-18,2.3-25.3,7S945.1,156,941,164.7s-6.1,18.6-6.1,30.3c0,17.7,4.4,31.7,12.8,41.6
				c8.4,10.2,20.1,15.1,35.2,15.1c9.3,0,17.2-1.7,23.6-5.5c6.4-3.8,11.3-8.4,14.3-14.5c3.2-6.1,4.7-12.5,4.7-19.2v-7.3H982v-9h53
				V196.6z"/>
			<path class="st0" d="M1156.3,259.1h-9.6V131.4h9.6V259.1z"/>
		</g>
		<g class="st4">
			<path class="st5" d="M1274.1,131.4h45.1c14,0,24.4,2.9,31.4,8.7s10.5,14.3,10.5,25.3c0,7.6-2,14-6.1,18.9
				c-4.1,5.2-9.9,8.4-17.5,10.2v0.3c8.1,1.2,14.8,4.7,19.8,10.2c4.9,5.5,7.3,12.2,7.3,20.1c0,11.1-3.8,19.5-11.6,25.6
				c-7.8,6.1-18.9,9-33.5,9h-45.1V131.4H1274.1z M1319.5,190.2c20.7,0,31.1-8.4,31.1-25s-10.5-25-31.1-25h-35.8v50H1319.5z
				 M1321.3,250.4c10.8,0,18.9-2.3,24.7-6.7c5.5-4.4,8.4-10.8,8.4-18.9c0-8.4-2.9-14.8-8.4-19.2s-13.7-6.4-24.7-6.4h-37.5v51.2
				L1321.3,250.4L1321.3,250.4z"/>
		</g>
		<g class="st4">
			<path class="st5" d="M1543.3,219h-61.1l-16,40.2H1456l51.2-127.7h11.3l51.2,127.7h-10.2L1543.3,219z M1539.8,210.2l-22.4-55.9
				l-4.7-13.7h-0.3l-4.7,13.1l-22.4,56.2h54.4L1539.8,210.2L1539.8,210.2z"/>
			<path class="st5" d="M1769,259.1h-11.9l-67.8-100.4l-9.6-17.2h-0.3l0.6,16v101.3h-9.3V131.1h12.2l67.5,100.1l9.6,17.2l-0.3-16
				V131.1h9v128H1769z"/>
		</g>
		<g class="st4">
			<path class="st5" d="M1922.1,190.2l-25.6,25.9v43h-9.6V131.4h9.6V203l70.1-71.6h12.8l-50.6,51.8l51.8,76.2H1969L1922.1,190.2z"/>
		</g>
	</g>
</g>
<g>
	<path class="st6" d="M590.8,308.2h27c8.7,0,15.2,1.8,19.5,5.5c4.3,3.6,6.4,8.8,6.4,15.5c0,4-1.1,7.5-3.4,10.6
		c-2.3,3.1-5.4,5-9.4,5.8v0.1c4.4,0.8,8,2.9,10.7,6.1c2.7,3.2,4,6.9,4,11.2c0,6.5-2.5,11.7-7.4,15.5c-4.9,3.8-11.8,5.8-20.6,5.8
		h-26.9V308.2z M617.9,341.6c5.4,0,9.5-1,12.1-3c2.6-2,4-5.2,4-9.4c0-8.2-5.4-12.3-16.1-12.3H600v24.7H617.9z M619.9,375.5
		c5.4,0,9.4-1.1,12.1-3.3c2.7-2.2,4-5.3,4-9.4c0-4.1-1.3-7.2-4-9.4c-2.7-2.2-6.7-3.3-12.1-3.3H600v25.3H619.9z"/>
	<path class="st6" d="M717.6,376.9l-0.6,7.2c-2.1,0.8-4.4,1.2-6.9,1.2c-3,0-5.3-0.7-7.1-2s-2.8-3.5-3.3-6.6
		c-1.8,2.7-4.4,4.8-7.8,6.3c-3.4,1.5-7,2.2-10.8,2.2c-5.7,0-10.4-1.3-14-4c-3.7-2.6-5.5-6.5-5.5-11.4c0-4.4,1.9-8.1,5.8-11.3
		c3.8-3.2,9.4-5.4,16.7-6.6l15.3-2.5v-3.2c0-3.8-1.2-6.9-3.6-9.2c-2.4-2.3-5.7-3.4-9.9-3.4c-3.8,0-7.1,0.9-9.9,2.8
		c-2.8,1.8-5,4.6-6.5,8.2l-6.8-4.9c1.5-4.3,4.4-7.7,8.6-10.2c4.2-2.5,9.1-3.8,14.7-3.8c6.8,0,12.3,1.7,16.4,4.9
		c4.1,3.3,6.2,8.2,6.2,14.6v28.3c0,1.4,0.3,2.4,1,3.1c0.7,0.7,1.8,1,3.3,1C714.5,377.5,716.1,377.3,717.6,376.9z M694.2,373.8
		c3.5-2.3,5.2-5.3,5.2-9v-7.9l-12.9,2.4c-5.1,0.9-9,2.2-11.5,4c-2.5,1.7-3.8,3.9-3.8,6.6c0,2.4,0.9,4.2,2.8,5.5
		c1.8,1.3,4.4,1.9,7.7,1.9C686.6,377.2,690.7,376.1,694.2,373.8z"/>
	<path class="st6" d="M776.7,331.1c4.2,3.8,6.3,9.2,6.3,16.2v36.8h-9.2v-33.6c0-6-1.3-10.3-3.9-13c-2.6-2.7-6-4-10.3-4
		c-3.1,0-5.9,0.7-8.6,2c-2.7,1.3-4.9,3.5-6.6,6.6c-1.7,3-2.6,6.8-2.6,11.4v30.6h-9.2v-57.5h8.1l0.6,9c1.9-3.5,4.6-6,7.9-7.6
		c3.4-1.6,7.2-2.5,11.4-2.5C767.1,325.5,772.5,327.4,776.7,331.1z"/>
	<path class="st6" d="M827,355.7l-12.2,12.2v16.2h-9.2v-84h9.2v56.2l29.8-29.8h11.5l-22.4,22.4l23.8,35.1h-11.2L827,355.7z"/>
	<path class="st6" d="M872.1,313.7c-1.3-1.3-1.9-2.9-1.9-5c0-2.1,0.6-3.7,1.9-5s2.9-1.9,5-1.9c2.1,0,3.7,0.6,5,1.9
		c1.3,1.3,1.9,2.9,1.9,5c0,2.1-0.6,3.7-1.9,5c-1.3,1.3-2.9,1.9-5,1.9C875,315.6,873.4,315,872.1,313.7z M881.7,384.1h-9.2v-57.5h9.2
		V384.1z"/>
	<path class="st6" d="M948.9,331.1c4.2,3.8,6.3,9.2,6.3,16.2v36.8H946v-33.6c0-6-1.3-10.3-3.9-13c-2.6-2.7-6-4-10.3-4
		c-3.1,0-5.9,0.7-8.6,2c-2.7,1.3-4.9,3.5-6.6,6.6c-1.7,3-2.6,6.8-2.6,11.4v30.6h-9.2v-57.5h8.1l0.6,9c1.9-3.5,4.6-6,7.9-7.6
		c3.4-1.6,7.2-2.5,11.4-2.5C939.3,325.5,944.7,327.4,948.9,331.1z"/>
	<path class="st6" d="M1022.6,380.5c3.1,2.5,4.6,5.8,4.6,10c0,3.7-1.3,6.9-3.8,9.7c-2.5,2.8-6,4.9-10.3,6.4
		c-4.3,1.5-9.1,2.2-14.3,2.2c-8.7,0-15.3-1.4-19.8-4.2c-4.4-2.8-6.7-6.5-6.7-11c0-2.6,0.9-4.9,2.7-6.9c1.8-2,4.3-3.4,7.4-4.3
		c-2.4-1.1-4.3-2.6-5.7-4.4c-1.4-1.8-2.1-3.8-2.1-6.2c0-2.8,0.8-5.2,2.3-7.1c1.5-1.9,3.6-3.3,6.3-4.2c-2.8-1.7-4.8-3.9-6.3-6.6
		c-1.4-2.7-2.1-5.8-2.1-9.1c0-3.8,1-7.1,3-10.1c2-3,4.8-5.3,8.4-6.9c3.6-1.6,7.7-2.5,12.2-2.5c4.3,0,8.2,0.8,11.7,2.3
		c2.1-7.8,7.6-11.7,16.2-11.7l2.1,8c-7.5,0-12.1,2.1-13.7,6.3c2.3,1.8,4.1,3.9,5.3,6.3c1.3,2.5,1.9,5.2,1.9,8.2c0,3.8-1,7.1-3,10.1
		c-2,3-4.8,5.3-8.4,6.9c-3.6,1.7-7.7,2.5-12.2,2.5c-3.4,0-6.3-0.3-8.9-1c-2.3,0.5-3.9,1.4-4.9,2.5c-1,1.2-1.5,2.7-1.5,4.7
		c0,2,0.7,3.5,2.1,4.6c1.4,1.1,3.2,1.6,5.5,1.6h19.1C1015.3,376.8,1019.5,378,1022.6,380.5z M1013.6,398.3c3.4-1.9,5.1-4.2,5.1-6.8
		c0-2.2-0.9-3.9-2.6-5.1c-1.7-1.1-4.7-1.7-8.8-1.7h-15.4c-3.5,0-6.2,0.6-8.2,1.9c-1.9,1.3-2.9,3-2.9,5.2c0,2.9,1.6,5.2,4.8,6.8
		c3.2,1.6,7.9,2.5,14.1,2.5C1005.6,401.2,1010.2,400.2,1013.6,398.3z M988.4,336.3c-2.7,2.2-4,5.1-4,8.6c0,3.5,1.3,6.4,4,8.6
		c2.7,2.2,6,3.3,10,3.3s7.3-1.1,10-3.3c2.7-2.2,4-5.1,4-8.6c0-3.5-1.3-6.4-4-8.6c-2.7-2.2-6-3.3-10-3.3S991.1,334.1,988.4,336.3z"/>
	<path class="st6" d="M1085.3,308.2h27c8.7,0,15.2,1.8,19.5,5.5c4.3,3.6,6.4,8.8,6.4,15.5c0,4-1.1,7.5-3.4,10.6
		c-2.3,3.1-5.4,5-9.4,5.8v0.1c4.4,0.8,8,2.9,10.7,6.1c2.7,3.2,4,6.9,4,11.2c0,6.5-2.5,11.7-7.4,15.5c-4.9,3.8-11.8,5.8-20.6,5.8
		h-26.9V308.2z M1112.4,341.6c5.4,0,9.5-1,12.1-3c2.6-2,4-5.2,4-9.4c0-8.2-5.4-12.3-16.1-12.3h-17.9v24.7H1112.4z M1114.3,375.5
		c5.4,0,9.4-1.1,12.1-3.3c2.7-2.2,4-5.3,4-9.4c0-4.1-1.3-7.2-4-9.4c-2.7-2.2-6.7-3.3-12.1-3.3h-19.9v25.3H1114.3z"/>
	<path class="st6" d="M1209.2,358.8h-43.4c0.5,5.8,2.5,10.3,5.8,13.6c3.3,3.2,7.6,4.8,12.9,4.8c4.2,0,7.7-0.7,10.5-2.2
		c2.8-1.5,4.7-3.6,5.7-6.3l7.7,4c-2.3,4.1-5.4,7.2-9.2,9.3c-3.8,2.1-8.7,3.2-14.7,3.2c-8.7,0-15.5-2.6-20.4-7.9
		c-4.9-5.3-7.4-12.6-7.4-22c0-9.4,2.4-16.7,7.1-22c4.7-5.3,11.4-7.9,20.1-7.9c5.4,0,10,1.2,13.9,3.6c3.9,2.4,6.9,5.6,8.9,9.7
		c2,4.1,3,8.6,3,13.7C1209.7,354.5,1209.5,356.7,1209.2,358.8z M1171.7,338c-3.1,3-5,7.2-5.7,12.7h34.8c-0.6-5.4-2.4-9.6-5.3-12.6
		c-2.9-3-6.8-4.5-11.6-4.5C1178.9,333.5,1174.8,335,1171.7,338z"/>
	<path class="st6" d="M1248,393.8c-2.2,5.5-4.7,9.4-7.5,11.7c-2.8,2.3-6.3,3.4-10.7,3.4c-2.9,0-5.3-0.4-7.3-1.1
		c-2-0.8-3.7-2-5.3-3.7l3.2-7.8c2.2,3.1,5.3,4.6,9.3,4.6c2.2,0,4.2-0.7,5.9-2c1.7-1.3,3.2-3.8,4.5-7.3l3-7.5l-24-57.4h10.5
		l14.4,37.5l3.6,10.2l4.1-11.4l13.5-36.3h9.9L1248,393.8z"/>
	<path class="st6" d="M1334.1,333.4c4.9,5.3,7.4,12.6,7.4,22c0,9.4-2.5,16.7-7.4,22c-4.9,5.3-11.7,7.9-20.4,7.9
		c-8.7,0-15.5-2.6-20.4-7.9c-4.9-5.3-7.4-12.6-7.4-22c0-9.4,2.5-16.7,7.4-22c4.9-5.3,11.7-7.9,20.4-7.9
		C1322.3,325.5,1329.1,328.1,1334.1,333.4z M1300,339.3c-3.3,3.9-4.9,9.3-4.9,16.1c0,6.8,1.6,12.2,4.9,16.1
		c3.3,3.9,7.9,5.9,13.7,5.9c5.8,0,10.4-2,13.7-5.9c3.3-3.9,4.9-9.3,4.9-16.1c0-6.8-1.6-12.2-4.9-16.1c-3.3-3.9-7.9-5.9-13.7-5.9
		C1307.8,333.4,1303.3,335.4,1300,339.3z"/>
	<path class="st6" d="M1405.1,331.1c4.2,3.8,6.3,9.2,6.3,16.2v36.8h-9.2v-33.6c0-6-1.3-10.3-3.9-13c-2.6-2.7-6-4-10.3-4
		c-3.1,0-5.9,0.7-8.6,2c-2.7,1.3-4.9,3.5-6.6,6.6c-1.7,3-2.6,6.8-2.6,11.4v30.6h-9.2v-57.5h8l0.6,9c1.9-3.5,4.6-6,7.9-7.6
		c3.4-1.6,7.2-2.5,11.4-2.5C1395.5,325.5,1400.8,327.4,1405.1,331.1z"/>
	<path class="st6" d="M1485,300.2v84h-8l-0.6-10c-1.7,3.4-4.3,6.1-7.8,8.1c-3.5,2-7.5,3-11.9,3c-8,0-14.4-2.7-19.1-8
		c-4.7-5.3-7.1-12.6-7.1-21.9c0-9.3,2.4-16.6,7.1-21.9c4.7-5.3,11.1-8,19.1-8c4.2,0,8,0.9,11.3,2.8c3.3,1.8,5.9,4.3,7.8,7.4v-35.4
		H1485z M1470.9,371.5c3.3-3.8,4.9-9,4.9-15.4v-1.4c0-6.4-1.6-11.6-4.9-15.4c-3.3-3.8-7.6-5.8-13.2-5.8c-5.6,0-10,2-13.2,5.9
		c-3.2,4-4.8,9.3-4.8,15.9s1.6,12,4.8,15.9c3.2,3.9,7.6,5.9,13.2,5.9C1463.3,377.2,1467.6,375.3,1470.9,371.5z"/>
	<path class="st6" d="M1550.8,308.2h27c8.7,0,15.2,1.8,19.5,5.5c4.3,3.6,6.4,8.8,6.4,15.5c0,4-1.1,7.5-3.4,10.6
		c-2.3,3.1-5.4,5-9.4,5.8v0.1c4.4,0.8,8,2.9,10.7,6.1c2.7,3.2,4,6.9,4,11.2c0,6.5-2.5,11.7-7.4,15.5c-4.9,3.8-11.8,5.8-20.6,5.8
		h-26.9V308.2z M1577.9,341.6c5.4,0,9.5-1,12.1-3c2.6-2,4-5.2,4-9.4c0-8.2-5.4-12.3-16.1-12.3H1560v24.7H1577.9z M1579.9,375.5
		c5.4,0,9.4-1.1,12.1-3.3c2.7-2.2,4-5.3,4-9.4c0-4.1-1.3-7.2-4-9.4c-2.7-2.2-6.7-3.3-12.1-3.3H1560v25.3H1579.9z"/>
	<path class="st6" d="M1670.5,333.4c4.9,5.3,7.4,12.6,7.4,22c0,9.4-2.5,16.7-7.4,22c-4.9,5.3-11.7,7.9-20.4,7.9
		c-8.7,0-15.5-2.6-20.4-7.9c-4.9-5.3-7.4-12.6-7.4-22c0-9.4,2.5-16.7,7.4-22c4.9-5.3,11.7-7.9,20.4-7.9
		C1658.8,325.5,1665.6,328.1,1670.5,333.4z M1636.4,339.3c-3.3,3.9-4.9,9.3-4.9,16.1c0,6.8,1.6,12.2,4.9,16.1
		c3.3,3.9,7.9,5.9,13.7,5.9c5.8,0,10.4-2,13.7-5.9c3.3-3.9,4.9-9.3,4.9-16.1c0-6.8-1.6-12.2-4.9-16.1c-3.3-3.9-7.9-5.9-13.7-5.9
		C1644.3,333.4,1639.7,335.4,1636.4,339.3z"/>
	<path class="st6" d="M1731,326.6l-1.8,9c-1.8-1-4.3-1.5-7.2-1.5c-2.5,0-4.8,0.7-7.2,2.1c-2.3,1.4-4.3,3.6-5.8,6.4
		s-2.2,6.3-2.2,10.4v31h-9.2v-57.5h7.5l1.3,9.4c3.2-7.1,9.4-10.6,18.4-10.6C1727.4,325.5,1729.5,325.9,1731,326.6z"/>
	<path class="st6" d="M1795.4,300.2v84h-8l-0.6-10c-1.7,3.4-4.3,6.1-7.8,8.1c-3.5,2-7.5,3-11.9,3c-8,0-14.4-2.7-19.1-8
		c-4.7-5.3-7.1-12.6-7.1-21.9c0-9.3,2.4-16.6,7.1-21.9c4.7-5.3,11.1-8,19.1-8c4.2,0,8,0.9,11.3,2.8c3.3,1.8,5.9,4.3,7.8,7.4v-35.4
		H1795.4z M1781.3,371.5c3.3-3.8,4.9-9,4.9-15.4v-1.4c0-6.4-1.6-11.6-4.9-15.4c-3.3-3.8-7.6-5.8-13.2-5.8c-5.6,0-10,2-13.2,5.9
		c-3.2,4-4.8,9.3-4.8,15.9s1.6,12,4.8,15.9c3.2,3.9,7.6,5.9,13.2,5.9C1773.6,377.2,1778,375.3,1781.3,371.5z"/>
	<path class="st6" d="M1867.4,358.8H1824c0.5,5.8,2.5,10.3,5.8,13.6c3.3,3.2,7.6,4.8,12.9,4.8c4.2,0,7.7-0.7,10.5-2.2
		c2.8-1.5,4.7-3.6,5.7-6.3l7.7,4c-2.3,4.1-5.4,7.2-9.2,9.3c-3.8,2.1-8.7,3.2-14.7,3.2c-8.7,0-15.5-2.6-20.4-7.9
		c-4.9-5.3-7.4-12.6-7.4-22c0-9.4,2.4-16.7,7.1-22c4.7-5.3,11.4-7.9,20.1-7.9c5.4,0,10,1.2,13.9,3.6c3.9,2.4,6.9,5.6,8.9,9.7
		c2,4.1,3,8.6,3,13.7C1867.8,354.5,1867.7,356.7,1867.4,358.8z M1829.8,338c-3.1,3-5,7.2-5.7,12.7h34.8c-0.6-5.4-2.4-9.6-5.3-12.6
		c-2.9-3-6.8-4.5-11.6-4.5C1837,333.5,1832.9,335,1829.8,338z"/>
	<path class="st6" d="M1920.5,326.6l-1.8,9c-1.8-1-4.3-1.5-7.2-1.5c-2.5,0-4.8,0.7-7.2,2.1c-2.3,1.4-4.3,3.6-5.8,6.4
		s-2.2,6.3-2.2,10.4v31h-9.2v-57.5h7.5l1.3,9.4c3.2-7.1,9.4-10.6,18.4-10.6C1916.9,325.5,1919,325.9,1920.5,326.6z"/>
	<path class="st6" d="M1937.9,382c-4.4-2.2-7.7-5.4-9.8-9.7l7.5-5.2c1.3,3.4,3.6,5.9,6.8,7.6c3.2,1.7,7,2.5,11.4,2.5
		c4.5,0,8-0.8,10.3-2.4c2.4-1.6,3.6-3.6,3.6-6.1c0-2.2-1.1-4-3.3-5.3c-2.2-1.3-6.1-2.5-11.7-3.5c-5.5-1-9.9-2.2-13.1-3.6
		c-3.2-1.4-5.6-3.2-7-5.4c-1.5-2.2-2.2-4.9-2.2-8.1c0-3.1,0.9-6,2.8-8.6c1.8-2.6,4.5-4.7,7.9-6.3c3.4-1.6,7.4-2.4,12-2.4
		c6.1,0,11.1,1.1,14.8,3.4c3.7,2.3,6.4,5.7,8,10.4l-7.8,4.6c-1.2-3.7-3.1-6.3-5.6-7.9c-2.5-1.6-5.6-2.4-9.4-2.4
		c-3.8,0-6.9,0.8-9.5,2.5c-2.6,1.7-3.9,3.6-3.9,5.9c0,2.5,1.1,4.5,3.4,5.9c2.3,1.4,6.3,2.6,12.1,3.6c8,1.3,13.6,3.3,16.9,5.9
		c3.3,2.6,4.9,6.3,4.9,11c0,3.3-1,6.2-2.9,8.8c-2,2.6-4.8,4.6-8.4,6c-3.6,1.5-7.9,2.2-12.7,2.2
		C1947.3,385.3,1942.3,384.2,1937.9,382z"/>
</g>
</svg>
