<?xml version="1.0" encoding="UTF-8"?>
<svg width="85px" height="70px" viewBox="0 0 85 70" version="1.1" xmlns="http://www.w3.org/2000/svg" xmlns:xlink="http://www.w3.org/1999/xlink">
    <!-- Generator: sketchtool 58 (101010) - https://sketch.com -->
    <title>1D0515E6-20E0-4ACC-ABF9-626537C65727</title>
    <desc>Created with sketchtool.</desc>
    <g id="Design-Proposal" stroke="none" stroke-width="1" fill="none" fill-rule="evenodd">
        <g id="01-Home" transform="translate(-528.000000, -882.000000)" fill="#3F87C8" fill-rule="nonzero">
            <g id="CTA1" transform="translate(455.000000, 856.000000)">
                <g id="Register" transform="translate(73.000000, 26.000000)">
                    <path d="M84.1202245,54.8357414 C83.6541379,54.3696548 83.021684,54.1074811 82.3626894,54.1074811 L78.1258323,54.1074811 L78.1258323,11.6832386 C78.1258323,10.3102251 77.0130504,9.19744318 75.6400369,9.19744318 L44.9087433,9.19744318 L44.9087433,2.48579545 C44.9087433,1.11278191 43.7959614,0 42.4229478,0 L2.48644276,0 C1.11407652,0 -1.19593993e-06,1.11278191 -1.19593993e-06,2.48579545 L-1.19593993e-06,32.4473988 C-1.19593993e-06,33.819765 1.11407652,34.9331942 2.48644276,34.9331942 L6.72265251,34.9331942 L6.72265251,54.1074811 L2.48579545,54.1074811 C1.82615334,54.1074811 1.19369969,54.3696548 0.727613045,54.8357414 C0.261526397,55.3024755 -1.19593993e-06,55.9349292 -1.19593993e-06,56.5945711 L-1.19593993e-06,58.2543576 C0.00258937027,64.1917835 4.83500159,69.0222538 10.7724276,69.0222538 L74.0767045,69.0222538 C80.0160726,69.0222538 84.8484848,64.1904889 84.8484848,58.2511208 L84.8484848,56.5932765 C84.8484848,55.9342819 84.5869585,55.3018281 84.1202245,54.8357414 Z M4.97223821,4.97159091 L39.9371524,4.97159091 L39.9371524,29.9616033 L4.97223821,29.9616033 L4.97223821,4.97159091 Z M42.4229478,34.9331942 C43.7959614,34.9331942 44.9087433,33.8204123 44.9087433,32.4473988 L44.9087433,14.1690341 L73.1542414,14.1690341 L73.1542414,54.0304473 L68.2765152,54.0304473 L68.2765152,46.5717663 C68.2765152,43.7771883 66.7300138,41.3380015 64.4487786,40.0607947 C65.1252515,38.8865153 65.5149518,37.5264485 65.5149518,36.0764011 C65.5149518,31.6602302 61.9215532,28.0668316 57.5047348,28.0668316 C53.0885638,28.0668316 49.4951653,31.6595829 49.4951653,36.0764011 C49.4951653,37.5264485 49.8842182,38.8865153 50.5606911,40.0607947 C48.2794559,41.3380015 46.7329545,43.7771883 46.7329545,46.5717663 L46.7329545,54.0304473 L11.6942434,54.0304473 L11.6942434,34.9331942 L42.4229478,34.9331942 Z M54.4667562,36.0764011 C54.4667562,34.4010787 55.8294123,33.0384225 57.5047348,33.0384225 C59.1800574,33.0384225 60.5433609,34.4010787 60.5433609,36.0764011 C60.5433609,37.7517239 59.1800574,39.1143799 57.5047348,39.1143799 C55.8294123,39.1143799 54.4667562,37.7517239 54.4667562,36.0764011 L54.4667562,36.0764011 Z M51.7045455,46.5717663 C51.7045455,45.201342 52.8199167,44.0859708 54.1903409,44.0859708 L60.8191288,44.0859708 C62.1902004,44.0859708 63.3049242,45.201342 63.3049242,46.5717663 L63.3049242,53.9773652 L51.7045455,53.9773652 L51.7045455,46.5717663 Z M74.0767045,64.0506629 L10.7724276,64.0506629 C7.85550208,64.0506629 5.43444089,61.8859493 5.03114643,59.079072 L79.8179857,59.079072 C79.4146914,61.8865966 76.9936301,64.0506629 74.0767045,64.0506629 L74.0767045,64.0506629 Z" id="Shape"></path>
                    <path d="M32.4817079,9.94382912 L12.4296246,9.94382912 C11.0572583,9.94382912 9.94382912,11.056611 9.94382912,12.4296246 C9.94382912,13.8019908 11.0572583,14.91542 12.4296246,14.91542 L32.4817079,14.91542 C33.8540741,14.91542 34.9675034,13.8019908 34.9675034,12.4296246 C34.9675034,11.056611 33.8540741,9.94382912 32.4817079,9.94382912 Z" id="Path"></path>
                    <path d="M25.85292,19.8870109 L12.4296246,19.8870109 C11.0572583,19.8870109 9.94382912,20.9997929 9.94382912,22.3728064 C9.94382912,23.7451726 11.0572583,24.8586018 12.4296246,24.8586018 L25.85292,24.8586018 C27.2252863,24.8586018 28.3387155,23.7451726 28.3387155,22.3728064 C28.3387155,20.9997929 27.2252863,19.8870109 25.85292,19.8870109 Z" id="Path"></path>
                </g>
            </g>
        </g>
    </g>
</svg>