<?xml version="1.0" encoding="UTF-8"?>
<svg width="524px" height="520px" viewBox="0 0 524 520" version="1.1" xmlns="http://www.w3.org/2000/svg" xmlns:xlink="http://www.w3.org/1999/xlink">
    <!-- Generator: sketchtool 58 (101010) - https://sketch.com -->
    <title>D6DD0D3E-D783-488F-A7EE-B539A29EB107@1x</title>
    <desc>Created with sketchtool.</desc>
    <defs>
        <linearGradient x1="-0.00980597798%" y1="49.9550409%" x2="100.01269%" y2="49.9550409%" id="linearGradient-1">
            <stop stop-color="#7BDAFF" offset="0%"></stop>
            <stop stop-color="#59BDEF" offset="100%"></stop>
        </linearGradient>
        <linearGradient x1="55.3697173%" y1="52.4299667%" x2="-23.7683036%" y2="16.9621564%" id="linearGradient-2">
            <stop stop-color="#59BDEF" offset="0%"></stop>
            <stop stop-color="#7BDAFF" offset="100%"></stop>
        </linearGradient>
        <linearGradient x1="0.0733221477%" y1="49.9702602%" x2="99.9271812%" y2="49.9702602%" id="linearGradient-3">
            <stop stop-color="#2573BA" offset="0%"></stop>
            <stop stop-color="#0063AD" offset="100%"></stop>
        </linearGradient>
        <linearGradient x1="-0.0667112299%" y1="49.9871652%" x2="100.058422%" y2="49.9871652%" id="linearGradient-4">
            <stop stop-color="#3A9BD5" offset="0%"></stop>
            <stop stop-color="#2573BA" offset="100%"></stop>
        </linearGradient>
        <linearGradient x1="-0.0651234568%" y1="50.0329861%" x2="100.054321%" y2="50.0329861%" id="linearGradient-5">
            <stop stop-color="#2573BA" offset="0%"></stop>
            <stop stop-color="#0063AD" offset="100%"></stop>
        </linearGradient>
        <linearGradient x1="-0.0777777778%" y1="49.9798611%" x2="100.040432%" y2="49.9798611%" id="linearGradient-6">
            <stop stop-color="#2573BA" offset="0%"></stop>
            <stop stop-color="#0063AD" offset="100%"></stop>
        </linearGradient>
        <linearGradient x1="-0.0203703704%" y1="49.9868056%" x2="100.09784%" y2="49.9868056%" id="linearGradient-7">
            <stop stop-color="#2573BA" offset="0%"></stop>
            <stop stop-color="#0063AD" offset="100%"></stop>
        </linearGradient>
        <linearGradient x1="-0.00982961992%" y1="50.009386%" x2="99.9939275%" y2="50.009386%" id="linearGradient-8">
            <stop stop-color="#7BDAFF" offset="0%"></stop>
            <stop stop-color="#59BDEF" offset="100%"></stop>
        </linearGradient>
        <linearGradient x1="-0.0307145276%" y1="49.9952572%" x2="259.618185%" y2="49.9952572%" id="linearGradient-9">
            <stop stop-color="#3A9BD5" offset="0%"></stop>
            <stop stop-color="#3088C8" offset="52.2%"></stop>
            <stop stop-color="#297BBF" offset="100%"></stop>
        </linearGradient>
        <linearGradient x1="40.8086542%" y1="17.6312991%" x2="59.0986614%" y2="82.0596489%" id="linearGradient-10">
            <stop stop-color="#59BDEF" offset="0%"></stop>
            <stop stop-color="#7BDAFF" offset="100%"></stop>
        </linearGradient>
        <radialGradient cx="12.6340731%" cy="53.7209189%" fx="12.6340731%" fy="53.7209189%" r="96.8782147%" gradientTransform="translate(0.126341,0.537209),scale(0.828417,1.000000),rotate(-51.466573),translate(-0.126341,-0.537209)" id="radialGradient-11">
            <stop stop-color="#FCE586" offset="0%"></stop>
            <stop stop-color="#FCDB7B" offset="22.73%"></stop>
            <stop stop-color="#FCD06F" offset="61.61%"></stop>
            <stop stop-color="#FCCC6B" offset="100%"></stop>
        </radialGradient>
        <radialGradient cx="101.451588%" cy="74.8889962%" fx="101.451588%" fy="74.8889962%" r="274.488842%" gradientTransform="translate(1.014516,0.748890),scale(0.829055,1.000000),rotate(-51.466573),translate(-1.014516,-0.748890)" id="radialGradient-12">
            <stop stop-color="#FCE586" offset="0%"></stop>
            <stop stop-color="#FCDB7B" offset="22.73%"></stop>
            <stop stop-color="#FCD06F" offset="61.61%"></stop>
            <stop stop-color="#FCCC6B" offset="100%"></stop>
        </radialGradient>
        <linearGradient x1="-0.00403655925%" y1="49.9997444%" x2="100.015847%" y2="49.9997444%" id="linearGradient-13">
            <stop stop-color="#7BDAFF" offset="0%"></stop>
            <stop stop-color="#59BDEF" offset="100%"></stop>
        </linearGradient>
        <radialGradient cx="21.0507127%" cy="21.4986299%" fx="21.0507127%" fy="21.4986299%" r="123.85905%" gradientTransform="translate(0.210507,0.214986),scale(0.576522,1.000000),rotate(-17.045363),translate(-0.210507,-0.214986)" id="radialGradient-14">
            <stop stop-color="#FCE586" offset="0%"></stop>
            <stop stop-color="#FCDB7B" offset="22.73%"></stop>
            <stop stop-color="#FCD06F" offset="61.61%"></stop>
            <stop stop-color="#FCCC6B" offset="100%"></stop>
        </radialGradient>
        <radialGradient cx="77.3215743%" cy="121.082025%" fx="77.3215743%" fy="121.082025%" r="350.841293%" gradientTransform="translate(0.773216,1.210820),scale(0.576245,1.000000),rotate(-17.045363),translate(-0.773216,-1.210820)" id="radialGradient-15">
            <stop stop-color="#FCE586" offset="0%"></stop>
            <stop stop-color="#FCDB7B" offset="22.73%"></stop>
            <stop stop-color="#FCD06F" offset="61.61%"></stop>
            <stop stop-color="#FCCC6B" offset="100%"></stop>
        </radialGradient>
        <radialGradient cx="21.1177286%" cy="21.3606573%" fx="21.1177286%" fy="21.3606573%" r="123.859218%" gradientTransform="translate(0.211177,0.213607),scale(0.576105,1.000000),rotate(-17.045363),translate(-0.211177,-0.213607)" id="radialGradient-16">
            <stop stop-color="#FCE586" offset="0%"></stop>
            <stop stop-color="#FCDB7B" offset="22.73%"></stop>
            <stop stop-color="#FCD06F" offset="61.61%"></stop>
            <stop stop-color="#FCCC6B" offset="100%"></stop>
        </radialGradient>
        <radialGradient cx="77.3047666%" cy="121.117446%" fx="77.3047666%" fy="121.117446%" r="350.841094%" gradientTransform="translate(0.773048,1.211174),scale(0.576245,1.000000),rotate(-17.045363),translate(-0.773048,-1.211174)" id="radialGradient-17">
            <stop stop-color="#FCE586" offset="0%"></stop>
            <stop stop-color="#FCDB7B" offset="22.73%"></stop>
            <stop stop-color="#FCD06F" offset="61.61%"></stop>
            <stop stop-color="#FCCC6B" offset="100%"></stop>
        </radialGradient>
        <radialGradient cx="21.0454085%" cy="21.4131466%" fx="21.0454085%" fy="21.4131466%" r="123.85905%" gradientTransform="translate(0.210454,0.214131),scale(0.576522,1.000000),rotate(-17.045363),translate(-0.210454,-0.214131)" id="radialGradient-18">
            <stop stop-color="#FCE586" offset="0%"></stop>
            <stop stop-color="#FCDB7B" offset="22.73%"></stop>
            <stop stop-color="#FCD06F" offset="61.61%"></stop>
            <stop stop-color="#FCCC6B" offset="100%"></stop>
        </radialGradient>
        <radialGradient cx="77.3154813%" cy="120.98012%" fx="77.3154813%" fy="120.98012%" r="350.841094%" gradientTransform="translate(0.773155,1.209801),scale(0.576245,1.000000),rotate(-17.045363),translate(-0.773155,-1.209801)" id="radialGradient-19">
            <stop stop-color="#FCE586" offset="0%"></stop>
            <stop stop-color="#FCDB7B" offset="22.73%"></stop>
            <stop stop-color="#FCD06F" offset="61.61%"></stop>
            <stop stop-color="#FCCC6B" offset="100%"></stop>
        </radialGradient>
        <radialGradient cx="21.1184986%" cy="21.5010116%" fx="21.1184986%" fy="21.5010116%" r="123.858883%" gradientTransform="translate(0.211185,0.215010),scale(0.576105,1.000000),rotate(-17.045363),translate(-0.211185,-0.215010)" id="radialGradient-20">
            <stop stop-color="#FCE586" offset="0%"></stop>
            <stop stop-color="#FCDB7B" offset="22.73%"></stop>
            <stop stop-color="#FCD06F" offset="61.61%"></stop>
            <stop stop-color="#FCCC6B" offset="100%"></stop>
        </radialGradient>
        <radialGradient cx="77.3054724%" cy="121.084861%" fx="77.3054724%" fy="121.084861%" r="350.841293%" gradientTransform="translate(0.773055,1.210849),scale(0.576245,1.000000),rotate(-17.045363),translate(-0.773055,-1.210849)" id="radialGradient-21">
            <stop stop-color="#FCE586" offset="0%"></stop>
            <stop stop-color="#FCDB7B" offset="22.73%"></stop>
            <stop stop-color="#FCD06F" offset="61.61%"></stop>
            <stop stop-color="#FCCC6B" offset="100%"></stop>
        </radialGradient>
        <radialGradient cx="21.091248%" cy="21.4455238%" fx="21.091248%" fy="21.4455238%" r="123.85905%" gradientTransform="translate(0.210912,0.214455),scale(0.576105,1.000000),rotate(-17.045363),translate(-0.210912,-0.214455)" id="radialGradient-22">
            <stop stop-color="#FCE586" offset="0%"></stop>
            <stop stop-color="#FCDB7B" offset="22.73%"></stop>
            <stop stop-color="#FCD06F" offset="61.61%"></stop>
            <stop stop-color="#FCCC6B" offset="100%"></stop>
        </radialGradient>
        <radialGradient cx="77.3065423%" cy="121.019171%" fx="77.3065423%" fy="121.019171%" r="350.841692%" gradientTransform="translate(0.773065,1.210192),scale(0.576494,1.000000),rotate(-17.045363),translate(-0.773065,-1.210192)" id="radialGradient-23">
            <stop stop-color="#FCE586" offset="0%"></stop>
            <stop stop-color="#FCDB7B" offset="22.73%"></stop>
            <stop stop-color="#FCD06F" offset="61.61%"></stop>
            <stop stop-color="#FCCC6B" offset="100%"></stop>
        </radialGradient>
        <radialGradient cx="21.0779407%" cy="21.3704459%" fx="21.0779407%" fy="21.3704459%" r="123.858883%" gradientTransform="translate(0.210779,0.213704),scale(0.576105,1.000000),rotate(-17.045363),translate(-0.210779,-0.213704)" id="radialGradient-24">
            <stop stop-color="#FCE586" offset="0%"></stop>
            <stop stop-color="#FCDB7B" offset="22.73%"></stop>
            <stop stop-color="#FCD06F" offset="61.61%"></stop>
            <stop stop-color="#FCCC6B" offset="100%"></stop>
        </radialGradient>
        <radialGradient cx="77.3390415%" cy="121.12853%" fx="77.3390415%" fy="121.12853%" r="350.841493%" gradientTransform="translate(0.773390,1.211285),scale(0.575997,1.000000),rotate(-17.045363),translate(-0.773390,-1.211285)" id="radialGradient-25">
            <stop stop-color="#FCE586" offset="0%"></stop>
            <stop stop-color="#FCDB7B" offset="22.73%"></stop>
            <stop stop-color="#FCD06F" offset="61.61%"></stop>
            <stop stop-color="#FCCC6B" offset="100%"></stop>
        </radialGradient>
        <radialGradient cx="21.0776002%" cy="21.3749959%" fx="21.0776002%" fy="21.3749959%" r="123.858883%" gradientTransform="translate(0.210776,0.213750),scale(0.576314,1.000000),rotate(-17.045363),translate(-0.210776,-0.213750)" id="radialGradient-26">
            <stop stop-color="#FCE586" offset="0%"></stop>
            <stop stop-color="#FCDB7B" offset="22.73%"></stop>
            <stop stop-color="#FCD06F" offset="61.61%"></stop>
            <stop stop-color="#FCCC6B" offset="100%"></stop>
        </radialGradient>
        <radialGradient cx="77.3294131%" cy="121.134006%" fx="77.3294131%" fy="121.134006%" r="350.841094%" gradientTransform="translate(0.773294,1.211340),scale(0.575997,1.000000),rotate(-17.045363),translate(-0.773294,-1.211340)" id="radialGradient-27">
            <stop stop-color="#FCE586" offset="0%"></stop>
            <stop stop-color="#FCDB7B" offset="22.73%"></stop>
            <stop stop-color="#FCD06F" offset="61.61%"></stop>
            <stop stop-color="#FCCC6B" offset="100%"></stop>
        </radialGradient>
        <radialGradient cx="24.6780941%" cy="13.3492776%" fx="24.6780941%" fy="13.3492776%" r="118.841682%" gradientTransform="translate(0.246781,0.133493),scale(0.609858,1.000000),rotate(-5.252002),translate(-0.246781,-0.133493)" id="radialGradient-28">
            <stop stop-color="#FCE586" offset="0%"></stop>
            <stop stop-color="#FCDB7B" offset="22.73%"></stop>
            <stop stop-color="#FCD06F" offset="61.61%"></stop>
            <stop stop-color="#FCCC6B" offset="100%"></stop>
        </radialGradient>
        <radialGradient cx="68.6386886%" cy="125.966228%" fx="68.6386886%" fy="125.966228%" r="336.993561%" gradientTransform="translate(0.686387,1.259662),scale(0.608945,1.000000),rotate(-5.252002),translate(-0.686387,-1.259662)" id="radialGradient-29">
            <stop stop-color="#FCE586" offset="0%"></stop>
            <stop stop-color="#FCDB7B" offset="22.73%"></stop>
            <stop stop-color="#FCD06F" offset="61.61%"></stop>
            <stop stop-color="#FCCC6B" offset="100%"></stop>
        </radialGradient>
        <radialGradient cx="31.349913%" cy="9.4399085%" fx="31.349913%" fy="9.4399085%" r="101.429819%" gradientTransform="translate(0.313499,0.094399),scale(0.769289,1.000000),rotate(12.399802),translate(-0.313499,-0.094399)" id="radialGradient-30">
            <stop stop-color="#FCE586" offset="0%"></stop>
            <stop stop-color="#FCDB7B" offset="22.73%"></stop>
            <stop stop-color="#FCD06F" offset="61.61%"></stop>
            <stop stop-color="#FCCC6B" offset="100%"></stop>
        </radialGradient>
        <radialGradient cx="53.9941593%" cy="119.600143%" fx="53.9941593%" fy="119.600143%" r="287.335502%" gradientTransform="translate(0.539942,1.196001),scale(0.769296,1.000000),rotate(12.399802),translate(-0.539942,-1.196001)" id="radialGradient-31">
            <stop stop-color="#FCE586" offset="0%"></stop>
            <stop stop-color="#FCDB7B" offset="22.73%"></stop>
            <stop stop-color="#FCD06F" offset="61.61%"></stop>
            <stop stop-color="#FCCC6B" offset="100%"></stop>
        </radialGradient>
        <radialGradient cx="13.6557673%" cy="49.8948542%" fx="13.6557673%" fy="49.8948542%" r="101.750278%" gradientTransform="translate(0.136558,0.498949),scale(0.764937,1.000000),rotate(-46.565552),translate(-0.136558,-0.498949)" id="radialGradient-32">
            <stop stop-color="#FCE586" offset="0%"></stop>
            <stop stop-color="#FCDB7B" offset="22.73%"></stop>
            <stop stop-color="#FCD06F" offset="61.61%"></stop>
            <stop stop-color="#FCCC6B" offset="100%"></stop>
        </radialGradient>
        <radialGradient cx="98.0014632%" cy="81.5849455%" fx="98.0014632%" fy="81.5849455%" r="288.484365%" gradientTransform="translate(0.980015,0.815849),scale(0.763748,1.000000),rotate(-46.565552),translate(-0.980015,-0.815849)" id="radialGradient-33">
            <stop stop-color="#FCE586" offset="0%"></stop>
            <stop stop-color="#FCDB7B" offset="22.73%"></stop>
            <stop stop-color="#FCD06F" offset="61.61%"></stop>
            <stop stop-color="#FCCC6B" offset="100%"></stop>
        </radialGradient>
        <linearGradient x1="-0.021835206%" y1="50.0067371%" x2="100.013071%" y2="50.0067371%" id="linearGradient-34">
            <stop stop-color="#7BDAFF" offset="0%"></stop>
            <stop stop-color="#59BDEF" offset="100%"></stop>
        </linearGradient>
        <linearGradient x1="42.5216368%" y1="40.6938745%" x2="106.890159%" y2="133.586005%" id="linearGradient-35">
            <stop stop-color="#2573BA" offset="0%"></stop>
            <stop stop-color="#0364AE" offset="90.7%"></stop>
            <stop stop-color="#0063AD" offset="100%"></stop>
        </linearGradient>
        <linearGradient x1="99.9707652%" y1="49.9577947%" x2="0.0245912361%" y2="49.9577947%" id="linearGradient-36">
            <stop stop-color="#0063AD" offset="0%"></stop>
            <stop stop-color="#2573BA" offset="100%"></stop>
        </linearGradient>
        <linearGradient x1="23.9843159%" y1="30.6487287%" x2="76.0287755%" y2="72.2960027%" id="linearGradient-37">
            <stop stop-color="#7BDAFF" offset="0%"></stop>
            <stop stop-color="#59BDEF" offset="100%"></stop>
        </linearGradient>
    </defs>
    <g id="Desktop-HD-1920px" stroke="none" stroke-width="1" fill="none" fill-rule="evenodd">
        <g id="02-About" transform="translate(-1006.000000, -480.000000)" fill-rule="nonzero">
            <g id="AboutPart1_WhyUs" transform="translate(0.000000, 360.000000)">
                <g id="WhyUs" transform="translate(389.000000, 120.000000)">
                    <g id="Digibank_OnlineBanking" transform="translate(617.000000, 0.000000)">
                        <g id="Group" transform="translate(38.000000, 179.000000)">
                            <g>
                                <polygon id="Path" fill="#041860" opacity="0.6" points="60.009375 103.090769 16.765625 78.0569231 51.1640625 58.1225641 94.465625 83.1564103"></polygon>
                                <path d="M61.74375,112.53641 L0.4625,77.0717949 L49.4296875,48.7348718 L110.710937,84.1994872 L61.74375,112.53641 Z M3.4109375,77.0717949 L61.74375,110.797949 L107.7625,84.1415385 L49.4296875,50.4153846 L3.4109375,77.0717949 Z" id="Shape" fill="url(#linearGradient-1)"></path>
                                <polygon id="Path" fill="url(#linearGradient-2)" points="60.009375 45.1420513 16.765625 20.1082051 51.1640625 0.173846154 94.465625 25.265641"></polygon>
                                <polygon id="Path" fill="url(#linearGradient-3)" points="94.465625 52.0958974 94.465625 25.265641 60.009375 45.1420513 60.009375 72.0302564"></polygon>
                                <polygon id="Path" fill="url(#linearGradient-4)" points="16.765625 20.1082051 16.765625 46.9964103 60.009375 72.0302564 60.009375 45.1420513"></polygon>
                            </g>
                            <g transform="translate(24.281250, 13.328205)" id="Path">
                                <g fill="#FFFFFF">
                                    <polygon points="19.078125 0.463589744 0.346875 11.3579487 0.346875 17.1528205 5.896875 20.34 5.896875 14.5451282 24.628125 3.70871795"></polygon>
                                    <polygon points="30.9875 7.35948718 12.25625 18.1958974 12.25625 24.0487179 17.80625 27.2358974 17.80625 21.4410256 36.5375 10.6046154"></polygon>
                                    <polygon points="42.896875 14.2553846 24.165625 25.0917949 24.165625 30.9446154 29.715625 34.1317949 29.715625 28.3369231 48.446875 17.5005128"></polygon>
                                </g>
                                <g>
                                    <polygon fill="#A9EBFF" points="19.078125 0.463589744 19.078125 2.83948718 22.6625 4.86769231 24.628125 3.70871795"></polygon>
                                    <polygon fill="#A9EBFF" points="2.3703125 15.9358974 0.346875 17.1528205 5.896875 20.34 5.896875 17.9641026"></polygon>
                                    <polygon fill="url(#linearGradient-5)" points="19.078125 0.463589744 0.346875 11.3579487 0.346875 17.1528205 2.3703125 15.9358974 2.3703125 12.5169231 19.078125 2.83948718"></polygon>
                                </g>
                                <g transform="translate(12.140625, 6.953846)">
                                    <polygon fill="#A9EBFF" points="18.846875 0.405641026 18.846875 2.78153846 22.43125 4.80974359 24.396875 3.65076923"></polygon>
                                    <polygon fill="#A9EBFF" points="2.1390625 15.8779487 0.115625 17.0948718 5.665625 20.2820513 5.665625 17.9061538"></polygon>
                                    <polygon fill="url(#linearGradient-6)" points="18.846875 0.405641026 0.115625 11.2420513 0.115625 17.0948718 2.1390625 15.8779487 2.1390625 12.4589744 18.846875 2.78153846"></polygon>
                                </g>
                                <g transform="translate(23.703125, 13.907692)">
                                    <polygon fill="#A9EBFF" points="19.19375 0.347692308 19.19375 2.72358974 22.778125 4.75179487 24.74375 3.59282051"></polygon>
                                    <polygon fill="#A9EBFF" points="2.4859375 15.82 0.4625 17.0369231 6.0125 20.2241026 6.0125 17.8482051"></polygon>
                                    <polygon fill="url(#linearGradient-7)" points="19.19375 0.347692308 0.4625 11.1841026 0.4625 17.0369231 2.4859375 15.82 2.4859375 12.4010256 19.19375 2.72358974"></polygon>
                                </g>
                            </g>
                        </g>
                        <g id="Group" transform="translate(124.000000, 0.000000)">
                            <path d="M199.825581,519.941964 C148.77907,519.941964 97.6744186,508.741071 58.8372093,486.339286 C21.0465116,464.575893 0.23255814,435.558036 0.23255814,404.625 C0.23255814,373.75 21.0465116,344.732143 58.8372093,322.910714 C136.569767,278.107143 263.081395,278.107143 340.872093,322.910714 C378.662791,344.674107 399.476744,373.691964 399.476744,404.625 C399.476744,435.5 378.662791,464.517857 340.872093,486.339286 L340.872093,486.339286 C301.976744,508.741071 250.872093,519.941964 199.825581,519.941964 Z M199.825581,290.816964 C149.011628,290.816964 98.255814,301.959821 59.5930233,324.245536 C22.2674419,345.776786 1.74418605,374.330357 1.74418605,404.625 C1.74418605,434.977679 22.3255814,463.53125 59.6511628,485.004464 C136.976744,529.575893 262.848837,529.575893 340.174419,485.004464 L340.174419,485.004464 C377.5,463.473214 398.081395,434.919643 398.081395,404.625 C398.081395,374.272321 377.5,345.71875 340.174419,324.245536 C301.395349,301.959821 250.639535,290.816964 199.825581,290.816964 Z" id="Shape" fill="url(#linearGradient-8)"></path>
                            <ellipse id="Oval" fill="#13247A" opacity="0.5" cx="199.825581" cy="404.625" rx="142.55814" ry="82.1785714"></ellipse>
                            <g transform="translate(106.395349, 0.000000)">
                                <path d="M184.244186,85.4285714 L38.255814,1.21875 C35.9302326,-0.116071429 33.7209302,-0.232142857 32.0930233,0.638392857 L22.2093023,6.38392857 L28.6627907,10.2723214 L28.6627907,351.696429 C28.6627907,358.776786 32.9651163,366.959821 38.255814,370.035714 L182.55814,453.316964 L180.523256,460.629464 L190.523256,454.825893 L190.523256,454.825893 C192.616279,453.665179 193.895349,450.9375 193.895349,447.049107 L193.895349,103.767857 C193.837209,96.6875 189.534884,88.4464286 184.244186,85.4285714 Z" id="Path" fill="url(#linearGradient-9)"></path>
                                <path d="M174.069767,460.165179 L28.1395349,375.955357 C22.8488372,372.879464 18.5465116,364.696429 18.5465116,357.616071 L18.5465116,14.3348214 C18.5465116,7.25446429 22.8488372,4.00446429 28.1395349,7.08035714 L174.127907,91.2901786 C179.418605,94.3660714 183.72093,102.549107 183.72093,109.629464 L183.72093,452.910714 C183.72093,459.991071 179.418605,463.241071 174.069767,460.165179 Z" id="Path" fill="url(#linearGradient-10)"></path>
                                <polygon id="Path" fill="#0F65B2" points="183.72093 453.142857 18.4883721 357.848214 18.4883721 14.1026786 183.72093 109.397321"></polygon>
                                <g transform="translate(0.000000, 29.017857)" fill="#FFFFFF">
                                    <path d="M157.325581,430.741071 L9.88372093,345.660714 C4.36046512,342.46875 0.930232558,336.607143 0.930232558,330.223214 L0.930232558,6.96428571 C0.930232558,2.4375 5.81395349,-0.40625 9.76744186,1.85714286 L157.209302,86.8794643 C162.732558,90.0714286 166.162791,95.9330357 166.162791,102.316964 L166.162791,425.633929 C166.162791,430.160714 161.22093,433.004464 157.325581,430.741071 Z" id="Path" opacity="0.4"></path>
                                    <path d="M160.232558,432.191964 C159.127907,432.191964 157.965116,431.901786 156.976744,431.321429 L9.53488372,346.241071 C3.8372093,342.933036 0.290697674,336.78125 0.290697674,330.223214 L0.290697674,6.96428571 C0.290697674,4.58482143 1.51162791,2.49553571 3.54651163,1.33482143 C5.58139535,0.174107143 8.02325581,0.174107143 10.0581395,1.33482143 L157.55814,86.3571429 C163.255814,89.6651786 166.802326,95.8169643 166.802326,102.375 L166.802326,425.691964 C166.802326,428.071429 165.581395,430.160714 163.546512,431.321429 C162.5,431.901786 161.395349,432.191964 160.232558,432.191964 Z M6.80232558,1.74107143 C5.93023256,1.74107143 5,1.97321429 4.18604651,2.4375 C2.55813953,3.36607143 1.56976744,5.04910714 1.56976744,6.96428571 L1.56976744,330.223214 C1.56976744,336.316964 4.88372093,342.0625 10.1744186,345.138393 L157.616279,430.160714 C159.244186,431.089286 161.22093,431.089286 162.848837,430.160714 C164.476744,429.232143 165.465116,427.549107 165.465116,425.633929 L165.465116,102.375 C165.465116,96.28125 162.151163,90.5357143 156.860465,87.4598214 L9.41860465,2.4375 C8.60465116,1.97321429 7.73255814,1.74107143 6.80232558,1.74107143 Z" id="Shape"></path>
                                </g>
                                <path d="M112.034884,63.6071429 L90.2325581,51.0133929 C89.4767442,50.6071429 88.8953488,49.4464286 88.8953488,48.4598214 L88.8953488,48.4598214 C88.8953488,47.4732143 89.4767442,47.0089286 90.2325581,47.4732143 L112.034884,60.0669643 C112.790698,60.4732143 113.372093,61.6339286 113.372093,62.6205357 L113.372093,62.6205357 C113.372093,63.5491071 112.732558,64.0133929 112.034884,63.6071429 Z" id="Path" fill="#0063AD"></path>
                            </g>
                            <path d="M227.383721,258.723214 C230.348837,260.464286 232.790698,258.607143 232.790698,254.660714 L232.790698,135.28125 C232.790698,131.276786 230.348837,126.691964 227.383721,124.950893 L107.790698,56.0044643 C107.5,57.3973214 107.325581,58.7901786 107.325581,60.2991071 L107.325581,189.486607 L227.383721,258.723214 Z" id="Path" fill="#041860" opacity="0.2"></path>
                            <g transform="translate(85.465116, 208.928571)">
                                <path d="M52.0348837,5.57142857 L52.0348837,8.53125 C49.4767442,7.37053571 46.2209302,6.79017857 42.3837209,7.08035714 C28.8372093,8.06696429 13.0813953,18.7455357 7.15116279,30.9330357 C5.52325581,34.2991071 4.8255814,37.4330357 4.94186047,40.21875 L2.20930233,39.2901786 L5.1744186,43.6428571 L5.1744186,43.6428571 C7.61627907,47.4732143 12.6162791,49.5625 19.4767442,49.0401786 C33.0232558,48.0535714 48.7790698,37.375 54.7093023,25.1875 C57.6744186,19.09375 57.6162791,13.7544643 55.1162791,10.0982143 L55.1162791,10.0982143 L52.0348837,5.57142857 Z" id="Path" fill="#F4A856"></path>
                                <path d="M51.6860465,20.6607143 C45.755814,32.8482143 30,43.5267857 16.4534884,44.5133929 C2.90697674,45.5 -3.25581395,36.4464286 2.6744186,24.2008929 C8.60465116,12.0133929 24.3604651,1.33482143 37.9069767,0.348214286 C51.3953488,-0.638392857 57.5581395,8.41517857 51.6860465,20.6607143 Z" id="Path" fill="#FCCC6B"></path>
                                <path d="M51.6860465,20.6607143 C45.755814,32.8482143 30,43.5267857 16.4534884,44.5133929 C2.90697674,45.5 -3.25581395,36.4464286 2.6744186,24.2008929 C8.60465116,12.0133929 24.3604651,1.33482143 37.9069767,0.348214286 C51.3953488,-0.638392857 57.5581395,8.41517857 51.6860465,20.6607143 Z" id="Path" fill="url(#radialGradient-11)"></path>
                                <path d="M35.6395349,34.53125 C30.2325581,38.2455357 23.9534884,40.7410714 18.1976744,41.2053571 C12.6162791,41.6116071 8.31395349,40.0446429 6.04651163,36.7366071 C3.77906977,33.4285714 3.89534884,28.84375 6.3372093,23.7946429 C11.3372093,13.5223214 24.6511628,4.46875 36.1046512,3.59821429 C41.6860465,3.19196429 45.9883721,4.75892857 48.255814,8.06696429 C50.5232558,11.375 50.4069767,15.9598214 47.9651163,21.0089286 C45.4651163,26.1160714 40.9883721,30.9330357 35.6395349,34.53125 Z M18.9534884,10.6785714 C13.7209302,14.2767857 9.24418605,18.9776786 6.80232558,24.0267857 C4.41860465,28.9017857 4.30232558,33.3125 6.45348837,36.4464286 C8.60465116,39.5803571 12.7325581,41.0892857 18.1395349,40.6830357 C29.4186047,39.8705357 42.5581395,30.9330357 47.5,20.7767857 C49.8837209,15.9017857 50,11.4910714 47.8488372,8.35714286 C45.6976744,5.22321429 41.5697674,3.71428571 36.1627907,4.12053571 C30.4651163,4.58482143 24.3023256,7.02232143 18.9534884,10.6785714 Z" id="Shape" fill="#F4A856"></path>
                                <path d="M47.7325581,20.9508929 C42.7906977,31.1651786 29.5348837,40.1607143 18.1976744,40.9732143 C6.86046512,41.7857143 1.62790698,34.1830357 6.62790698,23.9107143 C11.5697674,13.6964286 24.8255814,4.70089286 36.1627907,3.88839286 C47.5,3.07589286 52.6744186,10.6785714 47.7325581,20.9508929 Z" id="Path" fill="url(#radialGradient-12)"></path>
                                <path d="M7.26744186,24.8973214 C12.2093023,14.6830357 25.4651163,5.6875 36.8023256,4.875 C42.1511628,4.46875 46.1627907,5.97767857 48.372093,8.76339286 C46.3953488,5.33928571 42.1511628,3.42410714 36.1627907,3.88839286 C24.8255814,4.70089286 11.5697674,13.6964286 6.62790698,23.9107143 C4.01162791,29.3080357 4.24418605,33.9508929 6.68604651,37.0848214 C4.8255814,34.0089286 4.94186047,29.7723214 7.26744186,24.8973214 Z" id="Path" fill="#F4A856"></path>
                                <path d="M51.0465116,19.6741071 C45.1162791,31.8616071 29.3604651,42.5401786 15.8139535,43.5267857 C9.36046512,43.9910714 4.53488372,42.1339286 1.97674419,38.7678571 C4.36046512,42.7723214 9.41860465,44.9776786 16.4534884,44.4553571 C30,43.46875 45.755814,32.7901786 51.6860465,20.6026786 C54.7674419,14.21875 54.5348837,8.76339286 51.744186,5.04910714 C53.8953488,8.76339286 53.8372093,13.8705357 51.0465116,19.6741071 Z" id="Path" fill="#FCE586"></path>
                            </g>
                            <path d="M133.023256,243.982143 C136.046512,240.964286 138.546512,237.598214 140.232558,234.116071 C143.197674,228.022321 143.139535,222.683036 140.639535,219.026786 L137.55814,214.5 C137.5,214.441964 137.44186,214.383929 137.44186,214.325893 C137.383721,214.209821 137.325581,214.151786 137.267442,214.035714 C137.267442,214.09375 137.325581,214.09375 137.325581,214.151786 C134.767442,210.727679 129.94186,208.8125 123.430233,209.334821 C115.755814,209.915179 107.383721,213.571429 100.523256,218.852679 L124.883721,244.040179 L133.023256,244.040179 L133.023256,243.982143 Z" id="Path" fill="#F4A856"></path>
                            <g transform="translate(30.232558, 33.660714)">
                                <path d="M181.686047,101.098214 L8.08139535,1.10267857 C6.74418605,0.348214286 5.46511628,0.290178571 4.53488372,0.8125 L4.53488372,0.8125 L1.97674419,2.32142857 C1.97674419,2.32142857 2.55813953,2.37946429 3.19767442,2.49553571 C2.90697674,3.25 2.73255814,4.12053571 2.73255814,5.22321429 L2.73255814,124.602679 C2.73255814,128.607143 5.1744186,133.191964 8.13953488,134.933036 L181.686047,234.986607 C182.034884,235.160714 182.325581,235.334821 182.616279,235.392857 L182.616279,236.727679 L185.232558,235.21875 L185.232558,235.21875 C186.395349,234.580357 187.093023,233.013393 187.093023,230.866071 L187.093023,111.428571 C187.093023,107.482143 184.651163,102.839286 181.686047,101.098214 Z" id="Path" fill="#FFFFFF"></path>
                                <path d="M179.127907,236.379464 L5.58139535,136.325893 C2.61627907,134.584821 0.174418605,130 0.174418605,125.995536 L0.174418605,6.61607143 C0.174418605,2.61160714 2.61627907,0.8125 5.58139535,2.55357143 L179.127907,102.607143 C182.093023,104.348214 184.535901,108.933036 184.535901,112.9375 L184.535901,232.316964 C184.593023,236.263393 182.151163,238.120536 179.127907,236.379464 Z" id="Path" fill="url(#linearGradient-13)"></path>
                                <g transform="translate(127.325581, 91.696429)" fill="#FFFFFF">
                                    <path d="M0.0581395349,17.0625 L0.0581395349,0 L3.6627907,2.08928571 C4.36046512,2.49553571 4.94186047,2.90178571 5.46511628,3.30803571 C5.98837209,3.71428571 6.45348837,4.23660714 6.80232558,4.81696429 C7.20930233,5.33928571 7.5,5.97767857 7.6744186,6.67410714 C7.84883721,7.37053571 7.96511628,8.125 7.96511628,8.9375 C7.96511628,11.0267857 7.20930233,11.78125 5.81395349,11.2008929 C6.68604651,11.8973214 7.3255814,12.7098214 7.79069767,13.6383929 C8.19767442,14.5669643 8.43023256,15.6696429 8.43023256,16.9464286 C8.43023256,18.5714286 8.08139535,19.6160714 7.38372093,20.0223214 C6.68604651,20.4285714 5.63953488,20.2544643 4.30232558,19.5 L0.0581395349,17.0625 Z M2.79069767,8.53125 L3.60465116,8.99553571 C4.41860465,9.45982143 4.94186047,9.57589286 5.23255814,9.34375 C5.52325581,9.11160714 5.69767442,8.53125 5.69767442,7.60267857 C5.69767442,7.13839286 5.63953488,6.73214286 5.52325581,6.32589286 C5.40697674,5.97767857 5.23255814,5.62946429 5.05813953,5.33928571 C4.8255814,5.04910714 4.59302326,4.81696429 4.30232558,4.58482143 C4.01162791,4.35267857 3.6627907,4.12053571 3.19767442,3.88839286 L2.84883721,3.65625 L2.84883721,8.53125 L2.79069767,8.53125 Z M2.79069767,16.4241071 L3.77906977,17.0044643 C4.59302326,17.46875 5.11627907,17.5848214 5.46511628,17.2946429 C5.75581395,17.0625 5.93023256,16.4241071 5.93023256,15.4375 C5.93023256,14.3928571 5.75581395,13.5803571 5.40697674,12.8839286 C5.05813953,12.2455357 4.47674419,11.6651786 3.6627907,11.2008929 L2.79069767,10.7366071 L2.79069767,16.4241071 Z" id="Shape"></path>
                                    <path d="M9.41860465,22.4598214 L12.4418605,7.13839286 L15.2325581,8.76339286 L18.1976744,27.5089286 L15.6976744,26.0580357 L15.1162791,21.7633929 L12.5581395,20.3125 L11.9767442,23.9107143 L9.41860465,22.4598214 Z M12.8488372,18.4553571 L14.8255814,19.6160714 L13.8372093,12.0714286 L12.8488372,18.4553571 Z" id="Shape"></path>
                                    <polygon id="Path" points="19.7093023 28.3794643 19.7093023 11.3169643 21.5697674 12.3616071 25.1744186 24.0848214 25.1744186 14.5089286 27.3837209 15.7857143 27.3837209 32.8482143 25.6395349 31.8035714 21.9767442 19.5580357 21.9767442 29.7142857"></polygon>
                                    <polygon id="Path" points="29.5930233 34.125 29.5930233 17.0625 32.2674419 18.6294643 32.2674419 26.0580357 35.1744186 20.3125 37.7325581 21.8214286 34.8837209 27.7991071 38.0232558 39 35.3488372 37.4330357 32.7906977 27.9732143 32.2674419 28.7857143 32.2674419 35.6919643"></polygon>
                                </g>
                                <g transform="translate(15.116279, 112.589286)" fill="#FFFFFF" id="Path">
                                    <polygon points="32.9651163 23.5044643 0 4.52678571 0 0.116071429 32.9651163 19.09375"></polygon>
                                    <polygon points="73.4883721 46.8348214 40.5232558 27.8571429 40.5232558 23.4464286 73.4883721 42.4241071"></polygon>
                                    <polygon points="113.953488 70.1651786 81.0465116 51.1875 81.0465116 46.7767857 113.953488 65.7544643"></polygon>
                                    <polygon points="154.476744 93.4955357 121.511628 74.5178571 121.511628 70.1071429 154.476744 89.1428571"></polygon>
                                </g>
                                <path d="M179.127907,102.607143 L5.58139535,2.55357143 C2.61627907,0.8125 0.174418605,2.66964286 0.174418605,6.61607143 L0.174418605,125.995536 C0.174418605,126.75 0.290697674,127.446429 0.406976744,128.200893 C9.65116279,121.526786 47.2093023,100.924107 118.895349,140.446429 C145,154.839286 166.860465,152.924107 184.535901,143.522321 L184.535901,112.879464 C184.593023,108.933036 182.151163,104.290179 179.127907,102.607143 Z" id="Path" fill="#FFFFFF" opacity="0.2"></path>
                                <path d="M72.0930233,96.5133929 C96.4534884,93.3794643 116.860465,85.9508929 133.77907,76.4330357 L5.58139535,2.55357143 C2.61627907,0.8125 0.174418605,2.66964286 0.174418605,6.61607143 L0.174418605,120.888393 C12.9651163,110.790179 34.8255814,101.330357 72.0930233,96.5133929 Z" id="Path" fill="#FFFFFF" opacity="0.2"></path>
                            </g>
                            <g transform="translate(81.395349, 401.026786)">
                                <path d="M60.3488372,18.0491071 L58.6627907,20.4866071 C57.2093023,18.0491071 54.8837209,15.7857143 51.5116279,13.8705357 C39.7674419,7.02232143 20.755814,6.96428571 8.95348837,13.6964286 C5.69767442,15.5535714 3.31395349,17.7589286 1.86046512,20.0803571 L0.11627907,17.7589286 L0.11627907,22.9821429 L0.11627907,22.9821429 C3.34454686e-14,27.5089286 2.90697674,32.0357143 8.8372093,35.5178571 C20.5813953,42.3660714 39.5930233,42.4241071 51.3953488,35.6919643 C57.2674419,32.3258929 60.2325581,27.9151786 60.2906977,23.4464286 L60.2906977,23.4464286 L60.3488372,18.0491071 Z" id="Path" fill="#F4A856"></path>
                                <path d="M51.5116279,30.2366071 C39.7093023,36.96875 20.6976744,36.8526786 8.95348837,30.0625 C-2.79069767,23.2142857 -2.73255814,12.2455357 9.06976744,5.51339286 C20.872093,-1.21875 39.8837209,-1.10267857 51.627907,5.6875 C63.3139535,12.5357143 63.255814,23.5625 51.5116279,30.2366071 Z" id="Path" fill="#FCCC6B"></path>
                                <path d="M51.5116279,30.2366071 C39.7093023,36.96875 20.6976744,36.8526786 8.95348837,30.0625 C-2.79069767,23.2142857 -2.73255814,12.2455357 9.06976744,5.51339286 C20.872093,-1.21875 39.8837209,-1.10267857 51.627907,5.6875 C63.3139535,12.5357143 63.255814,23.5625 51.5116279,30.2366071 Z" id="Path" fill="url(#radialGradient-14)"></path>
                                <path d="M30.4069767,32.7321429 C23.8372093,32.7321429 17.2093023,31.28125 12.2093023,28.3794643 C7.38372093,25.5357143 4.70930233,21.8214286 4.70930233,17.8169643 C4.70930233,13.8125 7.44186047,10.0982143 12.2674419,7.3125 C22.2093023,1.625 38.372093,1.68303571 48.255814,7.48660714 C53.0813953,10.3303571 55.755814,14.0446429 55.755814,18.0491071 C55.755814,22.0535714 53.0232558,25.7678571 48.1976744,28.5535714 C43.3139535,31.28125 36.8604651,32.7321429 30.4069767,32.7321429 Z M30.1162791,3.59821429 C23.7790698,3.59821429 17.3837209,4.99107143 12.5581395,7.71875 C7.84883721,10.3883929 5.23255814,13.9866071 5.23255814,17.7589286 C5.23255814,21.53125 7.79069767,25.1294643 12.4418605,27.8571429 C22.2093023,33.5446429 38.0813953,33.6026786 47.9069767,28.03125 C52.6162791,25.3616071 55.2325581,21.7633929 55.2325581,17.9910714 C55.2325581,14.21875 52.6744186,10.6205357 48.0232558,7.89285714 C43.1395349,5.04910714 36.627907,3.59821429 30.1162791,3.59821429 Z" id="Shape" fill="#F4A856"></path>
                                <path d="M48.0813953,28.2633929 C38.1976744,33.8928571 22.2093023,33.8348214 12.3255814,28.0892857 C2.5,22.34375 2.5,13.1160714 12.4418605,7.48660714 C22.3255814,1.85714286 38.3139535,1.91517857 48.1976744,7.66071429 C58.0232558,13.40625 57.9651163,22.6339286 48.0813953,28.2633929 Z" id="Path" fill="url(#radialGradient-15)"></path>
                                <path d="M12.4418605,8.70535714 C22.3255814,3.07589286 38.3139535,3.13392857 48.1976744,8.87946429 C52.8488372,11.6071429 55.2906977,15.0892857 55.5232558,18.6294643 C55.8139535,14.6830357 53.372093,10.7366071 48.1976744,7.71875 C38.372093,1.97321429 22.3837209,1.91517857 12.4418605,7.54464286 C7.20930233,10.5044643 4.76744186,14.5089286 5,18.3973214 C5.29069767,14.8571429 7.73255814,11.375 12.4418605,8.70535714 Z" id="Path" fill="#F4A856"></path>
                                <path d="M51.5116279,29.1339286 C39.7093023,35.8660714 20.6976744,35.75 8.95348837,28.9598214 C3.37209302,25.7098214 0.465116279,21.4732143 0.23255814,17.2366071 C-0.0581395349,21.8794643 2.84883721,26.5803571 8.95348837,30.1205357 C20.6976744,36.96875 39.7093023,37.0267857 51.5116279,30.2946429 C57.6744186,26.8125 60.5813953,22.1116071 60.3488372,17.5267857 C60.0581395,21.7053571 57.1511628,25.8839286 51.5116279,29.1339286 Z" id="Path" fill="#FCE586"></path>
                            </g>
                            <g transform="translate(86.627907, 394.062500)">
                                <path d="M60.2906977,17.6428571 L58.6046512,20.0803571 C57.1511628,17.6428571 54.8255814,15.3794643 51.4534884,13.4642857 C39.7093023,6.61607143 20.6976744,6.55803571 8.89534884,13.2901786 C5.63953488,15.1473214 3.25581395,17.3526786 1.80232558,19.6741071 L0.0581395349,17.3526786 L0.0581395349,22.5758929 L0.0581395349,22.5758929 C-0.0581395349,27.1026786 2.84883721,31.6294643 8.77906977,35.1116071 C20.5232558,41.9598214 39.5348837,42.0178571 51.3372093,35.2857143 C57.2093023,31.9196429 60.1744186,27.5089286 60.2325581,23.0401786 L60.2325581,23.0401786 L60.2906977,17.6428571 Z" id="Path" fill="#F4A856"></path>
                                <path d="M51.3953488,29.8883929 C39.5930233,36.6205357 20.5813953,36.5044643 8.8372093,29.7142857 C-2.90697674,22.8660714 -2.84883721,11.8973214 8.95348837,5.16517857 C20.755814,-1.56696429 39.7674419,-1.45089286 51.5116279,5.33928571 C63.255814,12.1875 63.1976744,23.15625 51.3953488,29.8883929 Z" id="Path" fill="#FCCC6B"></path>
                                <path d="M51.3953488,29.8883929 C39.5930233,36.6205357 20.5813953,36.5044643 8.8372093,29.7142857 C-2.90697674,22.8660714 -2.84883721,11.8973214 8.95348837,5.16517857 C20.755814,-1.56696429 39.7674419,-1.45089286 51.5116279,5.33928571 C63.255814,12.1875 63.1976744,23.15625 51.3953488,29.8883929 Z" id="Path" fill="url(#radialGradient-16)"></path>
                                <path d="M30.3488372,32.3258929 C23.7790698,32.3258929 17.1511628,30.875 12.1511628,27.9732143 C7.3255814,25.1294643 4.65116279,21.4151786 4.65116279,17.4107143 C4.65116279,13.40625 7.38372093,9.69196429 12.2093023,6.90625 C22.1511628,1.21875 38.3139535,1.27678571 48.1976744,7.08035714 C53.0232558,9.92410714 55.6976744,13.6383929 55.6976744,17.6428571 C55.6976744,21.6473214 52.9651163,25.3616071 48.1395349,28.1473214 C43.1976744,30.9330357 36.8023256,32.3258929 30.3488372,32.3258929 Z M30.0581395,3.19196429 C23.7209302,3.19196429 17.3255814,4.58482143 12.5,7.3125 C7.79069767,9.98214286 5.1744186,13.5803571 5.1744186,17.3526786 C5.1744186,21.125 7.73255814,24.7232143 12.3837209,27.4508929 C22.1511628,33.1383929 38.0232558,33.1964286 47.8488372,27.625 C52.5581395,24.9553571 55.1744186,21.3571429 55.1744186,17.5848214 C55.1744186,13.8125 52.6162791,10.2142857 47.9651163,7.48660714 C43.0813953,4.64285714 36.5697674,3.19196429 30.0581395,3.19196429 Z" id="Shape" fill="#F4A856"></path>
                                <path d="M48.0232558,27.8571429 C38.1395349,33.4866071 22.1511628,33.4285714 12.2674419,27.6830357 C2.44186047,21.9375 2.44186047,12.7098214 12.3837209,7.08035714 C22.2674419,1.45089286 38.255814,1.50892857 48.1395349,7.25446429 C57.9651163,13 57.9069767,22.2276786 48.0232558,27.8571429 Z" id="Path" fill="url(#radialGradient-17)"></path>
                                <path d="M12.3837209,8.35714286 C22.2674419,2.72767857 38.255814,2.78571429 48.1395349,8.53125 C52.7906977,11.2589286 55.2325581,14.7410714 55.4651163,18.28125 C55.755814,14.3348214 53.3139535,10.3883929 48.1395349,7.37053571 C38.3139535,1.625 22.3255814,1.56696429 12.3837209,7.19642857 C7.15116279,10.15625 4.70930233,14.1607143 4.94186047,18.0491071 C5.23255814,14.4508929 7.6744186,11.0267857 12.3837209,8.35714286 Z" id="Path" fill="#F4A856"></path>
                                <path d="M51.4534884,28.7276786 C39.6511628,35.4598214 20.6395349,35.34375 8.89534884,28.5535714 C3.31395349,25.3035714 0.406976744,21.0669643 0.174418605,16.8303571 C-0.11627907,21.4732143 2.79069767,26.1741071 8.89534884,29.7142857 C20.6395349,36.5625 39.6511628,36.6205357 51.4534884,29.8883929 C57.6162791,26.40625 60.5232558,21.7053571 60.2906977,17.1205357 C60,21.2991071 57.0930233,25.4776786 51.4534884,28.7276786 Z" id="Path" fill="#FCE586"></path>
                            </g>
                            <g transform="translate(126.162791, 430.625000)">
                                <path d="M60.4069767,17.6428571 L58.7209302,20.0803571 C57.2674419,17.6428571 54.9418605,15.3794643 51.5697674,13.4642857 C39.8255814,6.61607143 20.8139535,6.55803571 9.01162791,13.2901786 C5.75581395,15.1473214 3.37209302,17.3526786 1.91860465,19.6741071 L0.174418605,17.3526786 L0.174418605,22.5758929 L0.174418605,22.5758929 C0.0581395349,27.1026786 2.96511628,31.6294643 8.89534884,35.1116071 C20.6395349,41.9598214 39.6511628,42.0178571 51.4534884,35.2857143 C57.3255814,31.9196429 60.2906977,27.5089286 60.3488372,23.0401786 L60.3488372,23.0401786 L60.4069767,17.6428571 Z" id="Path" fill="#F4A856"></path>
                                <ellipse id="Oval" fill="#FCCC6B" transform="translate(30.326481, 17.548487) rotate(-89.742931) translate(-30.326481, -17.548487) " cx="30.3264809" cy="17.548487" rx="17.352854" ry="30.1165485"></ellipse>
                                <path d="M51.5697674,29.8883929 C39.7674419,36.6205357 20.755814,36.5044643 9.01162791,29.7142857 C-2.73255814,22.8660714 -2.6744186,11.8973214 9.12790698,5.16517857 C20.9302326,-1.56696429 39.9418605,-1.45089286 51.6860465,5.33928571 C63.372093,12.1875 63.3139535,23.15625 51.5697674,29.8883929 Z" id="Path" fill="url(#radialGradient-18)"></path>
                                <path d="M30.4651163,32.3258929 C23.8953488,32.3258929 17.2674419,30.875 12.2674419,27.9732143 C7.44186047,25.1294643 4.76744186,21.4151786 4.76744186,17.4107143 C4.76744186,13.40625 7.5,9.69196429 12.3255814,6.90625 C22.2674419,1.21875 38.4302326,1.27678571 48.3139535,7.08035714 C53.1395349,9.92410714 55.8139535,13.6383929 55.8139535,17.6428571 C55.8139535,21.6473214 53.0813953,25.3616071 48.255814,28.1473214 C43.3139535,30.9330357 36.9186047,32.3258929 30.4651163,32.3258929 Z M30.1744186,3.25 C23.8372093,3.25 17.4418605,4.64285714 12.6162791,7.37053571 C7.90697674,10.0401786 5.29069767,13.6383929 5.29069767,17.4107143 C5.29069767,21.1830357 7.84883721,24.78125 12.5,27.5089286 C22.2674419,33.1964286 38.1395349,33.2544643 47.9651163,27.6830357 C52.6744186,25.0133929 55.2906977,21.4151786 55.2906977,17.6428571 C55.2906977,13.8705357 52.7325581,10.2723214 48.0813953,7.54464286 C43.1976744,4.64285714 36.6860465,3.25 30.1744186,3.25 Z" id="Shape" fill="#F4A856"></path>
                                <path d="M48.1395349,27.9151786 C38.255814,33.5446429 22.2674419,33.4866071 12.3837209,27.7410714 C2.55813953,21.9955357 2.55813953,12.7678571 12.5,7.13839286 C22.3837209,1.50892857 38.372093,1.56696429 48.255814,7.3125 C58.0813953,13.0580357 58.0232558,22.2857143 48.1395349,27.9151786 Z" id="Path" fill="url(#radialGradient-19)"></path>
                                <path d="M12.5,8.35714286 C22.3837209,2.72767857 38.372093,2.78571429 48.255814,8.53125 C52.9069767,11.2589286 55.3488372,14.7410714 55.5813953,18.28125 C55.872093,14.3348214 53.4302326,10.3883929 48.255814,7.37053571 C38.4302326,1.625 22.4418605,1.56696429 12.5,7.19642857 C7.26744186,10.15625 4.8255814,14.1607143 5.05813953,18.0491071 C5.34883721,14.5089286 7.79069767,11.0267857 12.5,8.35714286 Z" id="Path" fill="#F4A856"></path>
                                <path d="M51.5697674,28.7276786 C39.7674419,35.4598214 20.755814,35.34375 9.01162791,28.5535714 C3.43023256,25.3035714 0.523255814,21.0669643 0.290697674,16.8303571 C3.38618023e-14,21.4732143 2.90697674,26.1741071 9.01162791,29.7142857 C20.755814,36.5625 39.7674419,36.6205357 51.5697674,29.8883929 C57.7325581,26.40625 60.6395349,21.7053571 60.4069767,17.1205357 C60.1162791,21.3571429 57.2093023,25.5357143 51.5697674,28.7276786 Z" id="Path" fill="#FCE586"></path>
                            </g>
                            <g transform="translate(65.697674, 441.071429)">
                                <path d="M60.6976744,17.6428571 L59.0116279,20.0803571 C57.5581395,17.6428571 55.2325581,15.3794643 51.8604651,13.4642857 C40.1162791,6.61607143 21.1046512,6.55803571 9.30232558,13.2901786 C6.04651163,15.1473214 3.6627907,17.3526786 2.20930233,19.6741071 L0.465116279,17.3526786 L0.465116279,22.5758929 L0.465116279,22.5758929 C0.348837209,27.1026786 3.25581395,31.6294643 9.18604651,35.1116071 C20.9302326,41.9598214 39.9418605,42.0178571 51.744186,35.2857143 C57.6162791,31.9196429 60.5813953,27.5089286 60.6395349,23.0401786 L60.6395349,23.0401786 L60.6976744,17.6428571 Z" id="Path" fill="#F4A856"></path>
                                <ellipse id="Oval" fill="#FCCC6B" transform="translate(30.581708, 17.516400) rotate(-89.742931) translate(-30.581708, -17.516400) " cx="30.5817084" cy="17.5164003" rx="17.352854" ry="30.1165088"></ellipse>
                                <path d="M51.8023256,29.8303571 C40,36.5625 20.9883721,36.4464286 9.24418605,29.65625 C-2.5,22.8080357 -2.44186047,11.8392857 9.36046512,5.10714286 C21.1627907,-1.625 40.1744186,-1.50892857 51.9186047,5.28125 C63.6627907,12.1294643 63.6046512,23.15625 51.8023256,29.8303571 Z" id="Path" fill="url(#radialGradient-20)"></path>
                                <path d="M30.755814,32.3258929 C24.1860465,32.3258929 17.5581395,30.875 12.5581395,27.9732143 C7.73255814,25.1294643 5.05813953,21.4151786 5.05813953,17.4107143 C5.05813953,13.40625 7.79069767,9.69196429 12.6162791,6.90625 C22.5581395,1.21875 38.7209302,1.27678571 48.6046512,7.08035714 C53.4302326,9.92410714 56.1046512,13.6383929 56.1046512,17.6428571 C56.1046512,21.6473214 53.372093,25.3616071 48.5465116,28.1473214 C43.6046512,30.875 37.2093023,32.3258929 30.755814,32.3258929 Z M30.4651163,3.19196429 C24.127907,3.19196429 17.7325581,4.58482143 12.9069767,7.3125 C8.19767442,9.98214286 5.58139535,13.5803571 5.58139535,17.3526786 C5.58139535,21.125 8.13953488,24.7232143 12.7906977,27.4508929 C22.5581395,33.1383929 38.4302326,33.1964286 48.255814,27.625 C52.9651163,24.9553571 55.5813953,21.3571429 55.5813953,17.5848214 C55.5813953,13.8125 53.0232558,10.2142857 48.372093,7.48660714 C43.4883721,4.64285714 36.9767442,3.19196429 30.4651163,3.19196429 Z" id="Shape" fill="#F4A856"></path>
                                <path d="M48.4302326,27.8571429 C38.5465116,33.4866071 22.5581395,33.4285714 12.6744186,27.6830357 C2.84883721,21.9375 2.84883721,12.7098214 12.7906977,7.08035714 C22.6744186,1.45089286 38.6627907,1.50892857 48.5465116,7.25446429 C58.372093,13 58.3139535,22.2276786 48.4302326,27.8571429 Z" id="Path" fill="url(#radialGradient-21)"></path>
                                <path d="M12.7906977,8.35714286 C22.6744186,2.72767857 38.6627907,2.78571429 48.5465116,8.53125 C53.1976744,11.2589286 55.6395349,14.7410714 55.872093,18.28125 C56.1627907,14.3348214 53.7209302,10.3883929 48.5465116,7.37053571 C38.7209302,1.625 22.7325581,1.56696429 12.7906977,7.19642857 C7.55813953,10.15625 5.11627907,14.1607143 5.34883721,18.0491071 C5.63953488,14.4508929 8.08139535,10.96875 12.7906977,8.35714286 Z" id="Path" fill="#F4A856"></path>
                                <path d="M51.8604651,28.7276786 C40.0581395,35.4598214 21.0465116,35.34375 9.30232558,28.5535714 C3.72093023,25.3035714 0.813953488,21.0669643 0.581395349,16.8303571 C0.290697674,21.4732143 3.19767442,26.1741071 9.30232558,29.7142857 C21.0465116,36.5625 40.0581395,36.6205357 51.8604651,29.8883929 C58.0232558,26.40625 60.9302326,21.7053571 60.6976744,17.1205357 C60.4069767,21.2991071 57.5,25.4776786 51.8604651,28.7276786 Z" id="Path" fill="#FCE586"></path>
                            </g>
                            <g transform="translate(94.186047, 429.464286)">
                                <path d="M60.6976744,18.1651786 L59.0116279,20.6026786 C57.5581395,18.1651786 55.2325581,15.9017857 51.8604651,13.9866071 C40.1162791,7.13839286 21.1046512,7.08035714 9.30232558,13.8125 C6.04651163,15.6696429 3.6627907,17.875 2.20930233,20.1964286 L0.465116279,17.875 L0.465116279,23.0982143 L0.465116279,23.0982143 C0.348837209,27.625 3.25581395,32.1517857 9.18604651,35.6339286 C20.9302326,42.4821429 39.9418605,42.5401786 51.744186,35.8080357 C57.6162791,32.4419643 60.5813953,28.03125 60.6395349,23.5625 L60.6395349,23.5625 L60.6976744,18.1651786 Z" id="Path" fill="#F4A856"></path>
                                <ellipse id="Oval" fill="#FCCC6B" transform="translate(30.584527, 18.060988) rotate(-89.742895) translate(-30.584527, -18.060988) " cx="30.5845274" cy="18.0609875" rx="17.352854" ry="30.1165085"></ellipse>
                                <path d="M51.8023256,30.4107143 C40,37.1428571 20.9883721,37.0267857 9.24418605,30.2366071 C-2.5,23.3883929 -2.44186047,12.4196429 9.36046512,5.6875 C21.1627907,-1.04464286 40.1744186,-0.928571429 51.9186047,5.86160714 C63.6627907,12.7098214 63.6046512,23.6785714 51.8023256,30.4107143 Z" id="Path" fill="url(#radialGradient-22)"></path>
                                <path d="M30.6976744,32.8482143 C24.127907,32.8482143 17.5,31.3973214 12.5,28.4955357 C7.6744186,25.6517857 5,21.9375 5,17.9330357 C5,13.9285714 7.73255814,10.2142857 12.5581395,7.42857143 C22.5,1.74107143 38.6627907,1.79910714 48.5465116,7.60267857 C53.372093,10.4464286 56.0465116,14.1607143 56.0465116,18.1651786 C56.0465116,22.1696429 53.3139535,25.8839286 48.4883721,28.6696429 C43.6046512,31.4553571 37.1511628,32.8482143 30.6976744,32.8482143 Z M30.4651163,3.77232143 C24.127907,3.77232143 17.7325581,5.16517857 12.9069767,7.89285714 C8.19767442,10.5625 5.58139535,14.1607143 5.58139535,17.9330357 C5.58139535,21.7053571 8.13953488,25.3035714 12.7906977,28.03125 C22.5581395,33.71875 38.4302326,33.7767857 48.255814,28.2053571 C52.9651163,25.5357143 55.5813953,21.9375 55.5813953,18.1651786 C55.5813953,14.3928571 53.0232558,10.7946429 48.372093,8.06696429 C43.4302326,5.16517857 36.9186047,3.77232143 30.4651163,3.77232143 Z" id="Shape" fill="#F4A856"></path>
                                <path d="M48.4302326,28.4375 C38.5465116,34.0669643 22.5581395,34.0089286 12.6744186,28.2633929 C2.84883721,22.5178571 2.84883721,13.2901786 12.7906977,7.66071429 C22.6744186,2.03125 38.6627907,2.08928571 48.5465116,7.83482143 C58.3139535,13.5803571 58.3139535,22.8080357 48.4302326,28.4375 Z" id="Path" fill="url(#radialGradient-23)"></path>
                                <path d="M12.7906977,8.87946429 C22.6744186,3.25 38.6627907,3.30803571 48.5465116,9.05357143 C53.1976744,11.78125 55.6395349,15.2633929 55.872093,18.8035714 C56.1627907,14.8571429 53.7209302,10.9107143 48.5465116,7.89285714 C38.7209302,2.14732143 22.7325581,2.08928571 12.7906977,7.71875 C7.55813953,10.6785714 5.11627907,14.6830357 5.34883721,18.5714286 C5.63953488,15.03125 8.08139535,11.5491071 12.7906977,8.87946429 Z" id="Path" fill="#F4A856"></path>
                                <path d="M51.8023256,29.25 C40,35.9821429 20.9883721,35.8660714 9.24418605,29.0758929 C3.6627907,25.8258929 0.755813953,21.5892857 0.523255814,17.3526786 C0.23255814,21.9955357 3.13953488,26.6964286 9.24418605,30.2366071 C20.9883721,37.0848214 40,37.1428571 51.8023256,30.4107143 C57.9651163,26.9285714 60.872093,22.2276786 60.6395349,17.6428571 C60.4069767,21.8794643 57.4418605,26.0580357 51.8023256,29.25 Z" id="Path" fill="#FCE586"></path>
                            </g>
                            <g transform="translate(102.325581, 423.660714)">
                                <path d="M60.3488372,17.9910714 L58.6627907,20.4285714 C57.2093023,17.9910714 54.8255814,15.7276786 51.5116279,13.8125 C39.7674419,6.96428571 20.755814,6.90625 8.95348837,13.6383929 C5.69767442,15.4955357 3.31395349,17.7008929 1.86046512,20.0223214 L0.11627907,17.7008929 L0.11627907,22.9241071 L0.11627907,22.9241071 C3.35703687e-14,27.4508929 2.90697674,31.9776786 8.8372093,35.4598214 C20.5813953,42.3080357 39.5930233,42.3660714 51.3953488,35.6339286 C57.2674419,32.2678571 60.2325581,27.8571429 60.2906977,23.3883929 L60.2906977,23.3883929 L60.3488372,17.9910714 Z" id="Path" fill="#F4A856"></path>
                                <path d="M51.4534884,30.2366071 C39.6511628,36.96875 20.6395349,36.8526786 8.89534884,30.0625 C-2.84883721,23.2723214 -2.79069767,12.2455357 9.01162791,5.51339286 C20.8139535,-1.21875 39.8255814,-1.10267857 51.5697674,5.6875 C63.3139535,12.5357143 63.255814,23.5044643 51.4534884,30.2366071 Z" id="Path" fill="#FCCC6B"></path>
                                <path d="M51.4534884,30.2366071 C39.6511628,36.96875 20.6395349,36.8526786 8.89534884,30.0625 C-2.84883721,23.2723214 -2.79069767,12.2455357 9.01162791,5.51339286 C20.8139535,-1.21875 39.8255814,-1.10267857 51.5697674,5.6875 C63.3139535,12.5357143 63.255814,23.5044643 51.4534884,30.2366071 Z" id="Path" fill="url(#radialGradient-24)"></path>
                                <path d="M30.3488372,32.6741071 C23.7790698,32.6741071 17.1511628,31.2232143 12.1511628,28.3214286 C7.3255814,25.4776786 4.65116279,21.7633929 4.65116279,17.7589286 C4.65116279,13.7544643 7.38372093,10.0401786 12.2093023,7.25446429 C22.1511628,1.56696429 38.3139535,1.625 48.1976744,7.42857143 C53.0232558,10.2723214 55.6976744,13.9866071 55.6976744,17.9910714 C55.6976744,21.9955357 52.9651163,25.7098214 48.1395349,28.4955357 C43.255814,31.28125 36.8023256,32.6741071 30.3488372,32.6741071 Z M30.1162791,3.54017857 C23.7790698,3.54017857 17.3837209,4.93303571 12.5581395,7.66071429 C7.84883721,10.3303571 5.23255814,13.9285714 5.23255814,17.7008929 C5.23255814,21.4732143 7.79069767,25.0714286 12.4418605,27.7991071 C22.2093023,33.4866071 38.0813953,33.5446429 47.9069767,27.9732143 C52.6162791,25.3035714 55.2325581,21.7053571 55.2325581,17.9330357 C55.2325581,14.1607143 52.6744186,10.5625 48.0232558,7.83482143 C43.0813953,4.99107143 36.5697674,3.54017857 30.1162791,3.54017857 Z" id="Shape" fill="#F4A856"></path>
                                <path d="M48.0232558,28.2053571 C38.1395349,33.8348214 22.1511628,33.7767857 12.2674419,28.03125 C2.44186047,22.2857143 2.44186047,13.0580357 12.3837209,7.42857143 C22.2674419,1.79910714 38.255814,1.85714286 48.1395349,7.60267857 C57.9651163,13.3482143 57.9651163,22.5758929 48.0232558,28.2053571 Z" id="Path" fill="url(#radialGradient-25)"></path>
                                <path d="M12.3837209,8.70535714 C22.2674419,3.07589286 38.255814,3.13392857 48.1395349,8.87946429 C52.7906977,11.6071429 55.2325581,15.0892857 55.4651163,18.6294643 C55.755814,14.6830357 53.3139535,10.7366071 48.1395349,7.71875 C38.3139535,1.97321429 22.3255814,1.91517857 12.3837209,7.54464286 C7.15116279,10.5044643 4.70930233,14.5089286 4.94186047,18.3973214 C5.23255814,14.7991071 7.73255814,11.375 12.3837209,8.70535714 Z" id="Path" fill="#F4A856"></path>
                                <path d="M51.4534884,29.0758929 C39.6511628,35.8080357 20.6395349,35.6919643 8.89534884,28.9017857 C3.31395349,25.6517857 0.406976744,21.4151786 0.174418605,17.1785714 C-0.11627907,21.8214286 2.79069767,26.5223214 8.89534884,30.0625 C20.6395349,36.9107143 39.6511628,36.96875 51.4534884,30.2366071 C57.6162791,26.7544643 60.5232558,22.0535714 60.2906977,17.46875 C60.0581395,21.6473214 57.0930233,25.8839286 51.4534884,29.0758929 Z" id="Path" fill="#FCE586"></path>
                            </g>
                            <g transform="translate(106.395349, 412.053571)">
                                <path d="M60.3488372,18.0491071 L58.6627907,20.4866071 C57.2093023,18.0491071 54.8837209,15.7857143 51.5116279,13.8705357 C39.7674419,7.02232143 20.755814,6.96428571 8.95348837,13.6964286 C5.69767442,15.5535714 3.31395349,17.7589286 1.86046512,20.0803571 L0.11627907,17.7589286 L0.11627907,22.9821429 L0.11627907,22.9821429 C3.31956684e-14,27.5089286 2.90697674,32.0357143 8.8372093,35.5178571 C20.5813953,42.3660714 39.5930233,42.4241071 51.3953488,35.6919643 C57.2674419,32.3258929 60.2325581,27.9151786 60.2906977,23.4464286 L60.2906977,23.4464286 L60.3488372,18.0491071 Z" id="Path" fill="#F4A856"></path>
                                <ellipse id="Oval" fill="#FCCC6B" transform="translate(30.305433, 17.907582) rotate(-89.742672) translate(-30.305433, -17.907582) " cx="30.3054326" cy="17.9075824" rx="17.3528543" ry="30.1165523"></ellipse>
                                <path d="M51.5116279,30.2946429 C39.7093023,37.0267857 20.6976744,36.9107143 8.95348837,30.1205357 C-2.79069767,23.2723214 -2.73255814,12.3035714 9.06976744,5.57142857 C20.872093,-1.16071429 39.8837209,-1.04464286 51.627907,5.74553571 C63.3139535,12.59375 63.3139535,23.5625 51.5116279,30.2946429 Z" id="Path" fill="url(#radialGradient-26)"></path>
                                <path d="M30.4069767,32.7321429 C23.8372093,32.7321429 17.2093023,31.28125 12.2093023,28.3794643 C7.38372093,25.5357143 4.70930233,21.8214286 4.70930233,17.8169643 C4.70930233,13.8125 7.44186047,10.0982143 12.2674419,7.3125 C22.2093023,1.625 38.372093,1.68303571 48.255814,7.48660714 C53.0813953,10.3303571 55.755814,14.0446429 55.755814,18.0491071 C55.755814,22.0535714 53.0232558,25.7678571 48.1976744,28.5535714 C43.3139535,31.3392857 36.8604651,32.7321429 30.4069767,32.7321429 Z M30.1744186,3.59821429 C23.8372093,3.59821429 17.4418605,4.99107143 12.6162791,7.71875 C7.90697674,10.3883929 5.29069767,13.9866071 5.29069767,17.7589286 C5.29069767,21.53125 7.84883721,25.1294643 12.5,27.8571429 C22.2674419,33.5446429 38.1395349,33.6026786 47.9651163,28.03125 C52.6744186,25.3616071 55.2906977,21.7633929 55.2906977,17.9910714 C55.2906977,14.21875 52.7325581,10.6205357 48.0813953,7.89285714 C43.1395349,5.04910714 36.627907,3.59821429 30.1744186,3.59821429 Z" id="Shape" fill="#F4A856"></path>
                                <path d="M48.0813953,28.2633929 C38.1976744,33.8928571 22.2093023,33.8348214 12.3255814,28.0892857 C2.5,22.34375 2.5,13.1160714 12.4418605,7.48660714 C22.3255814,1.85714286 38.3139535,1.91517857 48.1976744,7.66071429 C58.0232558,13.40625 58.0232558,22.6339286 48.0813953,28.2633929 Z" id="Path" fill="url(#radialGradient-27)"></path>
                                <path d="M12.4418605,8.76339286 C22.3255814,3.13392857 38.3139535,3.19196429 48.1976744,8.9375 C52.8488372,11.6651786 55.2906977,15.1473214 55.5232558,18.6875 C55.8139535,14.7410714 53.372093,10.7946429 48.1976744,7.77678571 C38.372093,2.03125 22.3837209,1.97321429 12.4418605,7.60267857 C7.20930233,10.5625 4.76744186,14.5669643 5,18.4553571 C5.29069767,14.9151786 7.79069767,11.4330357 12.4418605,8.76339286 Z" id="Path" fill="#F4A856"></path>
                                <path d="M51.5116279,29.1339286 C39.7093023,35.8660714 20.6976744,35.75 8.95348837,28.9598214 C3.37209302,25.7098214 0.465116279,21.4732143 0.23255814,17.2366071 C-0.0581395349,21.8794643 2.84883721,26.5803571 8.95348837,30.1205357 C20.6976744,36.96875 39.7093023,37.0267857 51.5116279,30.2946429 C57.6744186,26.8125 60.5813953,22.1116071 60.3488372,17.5267857 C60.1162791,21.7053571 57.1511628,25.9419643 51.5116279,29.1339286 Z" id="Path" fill="#FCE586"></path>
                            </g>
                            <g transform="translate(126.744186, 410.312500)">
                                <path d="M60.8139535,24.5491071 L58.6627907,26.6383929 C57.7325581,23.96875 55.872093,21.2410714 53.0232558,18.6875 C42.9651163,9.63392857 24.3023256,5.62946429 11.3953488,9.80803571 C7.84883721,10.96875 5.05813953,12.6517857 3.13953488,14.625 L1.91860465,12.0133929 L0.813953488,17.1205357 L0.813953488,17.1205357 C-0.23255814,21.53125 1.68604651,26.5803571 6.80232558,31.2232143 C16.8604651,40.2767857 35.5232558,44.28125 48.4302326,40.1026786 C54.8837209,38.0133929 58.6627907,34.2991071 59.5930233,29.9464286 L59.5930233,29.9464286 L60.8139535,24.5491071 Z" id="Path" fill="#F4A856"></path>
                                <path d="M49.6511628,34.7053571 C36.744186,38.8839286 18.0813953,34.8794643 8.02325581,25.8258929 C-2.03488372,16.7723214 0.23255814,6.03571429 13.1395349,1.85714286 C26.0465116,-2.32142857 44.7093023,1.68303571 54.7674419,10.7366071 C64.8255814,19.7901786 62.5581395,30.5267857 49.6511628,34.7053571 Z" id="Path" fill="#FCCC6B"></path>
                                <path d="M49.6511628,34.7053571 C36.744186,38.8839286 18.0813953,34.8794643 8.02325581,25.8258929 C-2.03488372,16.7723214 0.23255814,6.03571429 13.1395349,1.85714286 C26.0465116,-2.32142857 44.7093023,1.68303571 54.7674419,10.7366071 C64.8255814,19.7901786 62.5581395,30.5267857 49.6511628,34.7053571 Z" id="Path" fill="url(#radialGradient-28)"></path>
                                <path d="M28.4883721,32.7901786 C22.0348837,31.4553571 15.872093,28.6696429 11.5697674,24.78125 C7.38372093,21.0089286 5.58139535,16.8303571 6.39534884,12.9419643 C7.20930233,9.05357143 10.6395349,5.97767857 15.9302326,4.23660714 C26.8023256,0.696428571 42.6162791,4.0625 51.1046512,11.7232143 C55.2906977,15.4955357 57.0930233,19.6741071 56.2790698,23.5625 C55.4651163,27.4508929 52.0348837,30.5267857 46.744186,32.2678571 C41.3953488,34.0669643 34.8255814,34.125 28.4883721,32.7901786 Z M34.1860465,4.23660714 C27.9651163,2.95982143 21.4534884,3.01785714 16.1627907,4.70089286 C10.9883721,6.38392857 7.73255814,9.34375 6.91860465,13.0580357 C6.10465116,16.7723214 7.90697674,20.8348214 11.9186047,24.4330357 C20.2906977,31.9776786 35.872093,35.2857143 46.627907,31.8616071 C51.8023256,30.1785714 55.0581395,27.21875 55.872093,23.5044643 C56.6860465,19.7901786 54.8837209,15.7276786 50.872093,12.1294643 C46.627907,8.29910714 40.5232558,5.57142857 34.1860465,4.23660714 Z" id="Shape" fill="#F4A856"></path>
                                <path d="M46.6860465,32.09375 C35.872093,35.5758929 20.2325581,32.2678571 11.744186,24.6651786 C3.25581395,17.0625 5.23255814,8.00892857 16.0465116,4.52678571 C26.8604651,1.04464286 42.5,4.35267857 50.9883721,11.9553571 C59.4767442,19.5580357 57.5581395,28.6116071 46.6860465,32.09375 Z" id="Path" fill="url(#radialGradient-29)"></path>
                                <path d="M15.8139535,5.6875 C26.627907,2.20535714 42.2674419,5.51339286 50.755814,13.1160714 C54.7674419,16.7142857 56.4534884,20.6607143 55.9302326,24.1428571 C57.0348837,20.3705357 55.4651163,15.9598214 50.9883721,11.9553571 C42.5581395,4.35267857 26.8604651,0.986607143 16.0465116,4.52678571 C10.3488372,6.38392857 7.09302326,9.75 6.56976744,13.6383929 C7.55813953,10.2142857 10.6976744,7.3125 15.8139535,5.6875 Z" id="Path" fill="#F4A856"></path>
                                <path d="M49.8837209,33.6026786 C36.9767442,37.78125 18.3139535,33.7767857 8.25581395,24.7232143 C3.43023256,20.3705357 1.45348837,15.6696429 2.09302326,11.4330357 C0.872093023,15.9017857 2.73255814,21.0669643 8.02325581,25.8258929 C18.0813953,34.8794643 36.744186,38.8839286 49.6511628,34.7053571 C56.3953488,32.5580357 60.2325581,28.5535714 60.9302326,23.96875 C59.7674419,28.0892857 56.0465116,31.6294643 49.8837209,33.6026786 Z" id="Path" fill="#FCE586"></path>
                            </g>
                            <g transform="translate(80.232558, 263.482143)">
                                <path d="M61.4534884,44.9776786 L58.7790698,46.3125 C58.7209302,43.5267857 57.7906977,40.3348214 55.8139535,37.0267857 C48.9534884,25.3035714 32.4418605,15.9017857 18.8372093,15.9598214 C15.0581395,15.9598214 11.9186047,16.7142857 9.53488372,18.0491071 L9.12790698,15.2053571 L6.51162791,19.7321429 L6.51162791,19.7321429 C4.18604651,23.6205357 4.47674419,29.0178571 7.90697674,34.9375 C14.7674419,46.6607143 31.2790698,56.0625 44.8837209,56.0047315 C51.6860465,55.9464286 56.4534884,53.5669643 58.6046512,49.7366071 L58.6046512,49.7366071 L61.4534884,44.9776786 Z" id="Path" fill="#F4A856"></path>
                                <ellipse id="Oval" fill="#FCCC6B" transform="translate(35.351184, 30.039112) rotate(-60.245880) translate(-35.351184, -30.039112) " cx="35.3511839" cy="30.0391122" rx="17.3610771" ry="30.1038221"></ellipse>
                                <path d="M47.7325581,51.2458013 C34.1860465,51.3035714 17.6162791,41.84375 10.755814,30.1785714 C3.89534884,18.4553571 9.36046512,8.9375 22.9651163,8.87919867 C36.5697674,8.82142857 53.0813953,18.28125 59.9418605,29.9464286 C66.744186,41.6696429 61.2790698,51.1875 47.7325581,51.2458013 Z" id="Path" fill="url(#radialGradient-30)"></path>
                                <path d="M28.1395349,43.0044643 C22.3837209,39.7544643 17.3837209,35.2857143 14.4767442,30.2946429 C11.627907,25.4776786 11.1627907,20.8928571 13.1976744,17.4107143 C15.1744186,13.9285714 19.3604651,12.0130794 24.9418605,12.0130794 C36.3953488,11.9553571 50.4069767,19.9642857 56.1627907,29.8303571 C59.0116279,34.6473214 59.4767442,39.2321429 57.4418605,42.7142857 C55.4651163,46.1964286 51.2790698,48.1116071 45.6976744,48.1116071 C40.0581395,48.1116071 33.7790698,46.1964286 28.1395349,43.0044643 Z M42.2674419,17.5267857 C36.744186,14.3928571 30.5232558,12.4776786 24.9418605,12.5357143 C19.5348837,12.5357143 15.5232558,14.3928571 13.6046512,17.7008929 C11.744186,21.0089286 12.2093023,25.3616071 14.8837209,30.0625 C20.5813953,39.8125 34.3604651,47.7053571 45.6976744,47.6476394 C51.1046512,47.6476394 55.1162791,45.7901786 57.0348837,42.4821429 C58.8953488,39.1741071 58.4302326,34.8214286 55.755814,30.1205357 C52.8488372,25.1875 47.9069767,20.71875 42.2674419,17.5267857 Z" id="Shape" fill="#F4A856"></path>
                                <path d="M45.6976744,47.87978 C34.3023256,47.9375 20.4069767,39.9866071 14.6511628,30.1785714 C8.89534884,20.3705357 13.4883721,12.3616071 24.8837209,12.3032557 C36.2790698,12.2455357 50.1744186,20.1964286 55.9302326,30.0044643 C61.6860465,39.8125 57.0930233,47.8214286 45.6976744,47.87978 Z" id="Path" fill="url(#radialGradient-31)"></path>
                                <path d="M24.3604651,13.3482143 C35.755814,13.2901786 49.6511628,21.2410714 55.4069767,31.0491071 C58.1395349,35.6919643 58.5465116,39.9285714 56.9767442,43.1205357 C59.1860465,39.8705357 59.0116279,35.1696429 55.9883721,30.0044643 C50.2325581,20.1964286 36.3372093,12.2455357 24.9418605,12.3035714 C18.9534884,12.3035714 14.8255814,14.5669643 13.1395349,18.1071429 C15.0581395,15.1473214 18.9534884,13.3482143 24.3604651,13.3482143 Z" id="Path" fill="#F4A856"></path>
                                <path d="M48.255814,50.2589286 C34.7093023,50.3169643 18.1395349,40.8571429 11.2790698,29.1919643 C8.02325581,23.6205357 7.55813953,18.5133929 9.47674419,14.6830357 C6.91860465,18.5714286 7.15116279,24.0848214 10.755814,30.1785714 C17.6162791,41.9017857 34.127907,51.3035714 47.7325581,51.245803 C54.8255814,51.1875 59.6511628,48.5758929 61.744186,44.4553571 C59.4186047,48.0535714 54.7674419,50.2589286 48.255814,50.2589286 Z" id="Path" fill="#FCE586"></path>
                            </g>
                            <g transform="translate(81.976744, 354.017857)">
                                <path d="M53.8953488,6.96428571 L53.6627907,9.92410714 C51.2209302,8.53125 48.0232558,7.71875 44.1860465,7.66071429 C30.6395349,7.48660714 14.0116279,16.7723214 7.09302326,28.4375 C5.1744186,31.6875 4.18604651,34.7053571 4.06976744,37.4910714 L1.39534884,36.3303571 L3.95348837,40.9151786 L3.95348837,40.9151786 C6.04651163,44.9196429 10.872093,47.4732143 17.7906977,47.53125 C31.3372093,47.7053571 47.9651163,38.4196429 54.8837209,26.7544643 C58.372093,20.9508929 58.7209302,15.6116071 56.5697674,11.78125 L56.5697674,11.78125 L53.8953488,6.96428571 Z" id="Path" fill="#F4A856"></path>
                                <path d="M52.2093023,21.9955357 C45.2906977,33.6607143 28.6627907,42.9464286 15.1162791,42.7723214 C1.56976744,42.5982143 -3.8372093,33.0223214 3.08139535,21.3571429 C10,9.69196429 26.627907,0.40625 40.1744186,0.580357143 C53.7790698,0.754464286 59.127907,10.3303571 52.2093023,21.9955357 Z" id="Path" fill="#FCCC6B"></path>
                                <path d="M52.2093023,21.9955357 C45.2906977,33.6607143 28.6627907,42.9464286 15.1162791,42.7723214 C1.56976744,42.5982143 -3.8372093,33.0223214 3.08139535,21.3571429 C10,9.69196429 26.627907,0.40625 40.1744186,0.580357143 C53.7790698,0.754464286 59.127907,10.3303571 52.2093023,21.9955357 Z" id="Path" fill="url(#radialGradient-32)"></path>
                                <path d="M35.0581395,34.4732143 C29.3023256,37.7232143 22.9069767,39.6964286 17.0930233,39.6383929 C11.5116279,39.5803571 7.3255814,37.6071429 5.34883721,34.125 C3.37209302,30.6428571 3.89534884,26.1160714 6.74418605,21.2991071 C12.6162791,11.4910714 26.6860465,3.59821429 38.1395349,3.71428571 C43.7209302,3.77232143 47.9069767,5.74553571 49.8837209,9.22767857 C51.8604651,12.7098214 51.3372093,17.2366071 48.4883721,22.0535714 C45.5813953,26.9285714 40.6976744,31.3392857 35.0581395,34.4732143 Z M20.4651163,9.28571429 C14.9418605,12.4196429 10.1162791,16.7142857 7.20930233,21.53125 C4.41860465,26.1741071 3.95348837,30.5848214 5.81395349,33.8928571 C7.6744186,37.2008929 11.6860465,39.0580357 17.0930233,39.1160714 C28.372093,39.2321429 42.2674419,31.5133929 48.0232558,21.8214286 C50.8139535,17.1785714 51.2790698,12.7678571 49.4186047,9.45982143 C47.5581395,6.15178571 43.5465116,4.29464286 38.1395349,4.23660714 C32.5,4.17857143 26.1046512,6.09375 20.4651163,9.28571429 Z" id="Shape" fill="#F4A856"></path>
                                <path d="M48.255814,21.9375 C42.4418605,31.6875 28.4883721,39.5223214 17.0930233,39.40625 C5.69767442,39.2901786 1.1627907,31.2232143 6.97674419,21.4732143 C12.7906977,11.7232143 26.744186,3.88839286 38.1395349,4.00446429 C49.5930233,4.12053571 54.0697674,12.1875 48.255814,21.9375 Z" id="Path" fill="url(#radialGradient-33)"></path>
                                <path d="M7.61627907,22.4598214 C13.4302326,12.7098214 27.3837209,4.875 38.7790698,4.99107143 C44.1860465,5.04910714 48.0232558,6.90625 49.9418605,9.86607143 C48.255814,6.32589286 44.1860465,4.0625 38.1395349,3.94642857 C26.744186,3.83035714 12.7906977,11.6071429 6.97674419,21.4151786 C3.89534884,26.5803571 3.72093023,31.2232143 5.87209302,34.53125 C4.41860465,31.3392857 4.88372093,27.1026786 7.61627907,22.4598214 Z" id="Path" fill="#F4A856"></path>
                                <path d="M51.6860465,21.0089286 C44.7674419,32.6741071 28.1395349,41.9598214 14.5930233,41.7857143 C8.08139535,41.7276786 3.48837209,39.4642857 1.22093023,35.8660714 C3.25581395,40.0446429 8.08139535,42.65625 15.1744186,42.7723214 C28.7209302,42.9464286 45.3488372,33.6607143 52.2674419,21.9955357 C55.872093,15.9017857 56.1627907,10.3883929 53.6627907,6.5 C55.4651163,10.3303571 55,15.4375 51.6860465,21.0089286 Z" id="Path" fill="#FCE586"></path>
                            </g>
                        </g>
                        <path d="M81.9730337,361 C80.9213483,361 79.9280899,360.709379 78.9932584,360.186262 L0.701123596,315.198151 C0.233707865,314.965654 0,314.500661 0,313.977543 C0,313.454425 0.292134831,312.989432 0.701123596,312.756935 L69.9370787,273 L70.6382022,274.220608 L1.40224719,313.977543 L79.694382,359.023778 C81.0966292,359.837517 82.8494382,359.837517 84.2516854,359.023778 L130.934831,332.286658 C132.804494,331.240423 135.083146,331.240423 136.894382,332.286658 L156,343.388375 L155.298876,344.608983 L136.193258,333.507266 C134.791011,332.693527 133.038202,332.693527 131.635955,333.507266 L84.952809,360.244386 C84.0179775,360.767503 82.9662921,361 81.9730337,361 Z" id="Path" fill="url(#linearGradient-34)"></path>
                        <g id="Group" transform="translate(267.000000, 211.000000)">
                            <g id="Path">
                                <path d="M162.891103,84.149589 L90.1124555,5.95232877 L17.3338078,0.0583561644 C17.3338078,0.0583561644 5.66120996,98.7386301 90.1124555,203.429589 C174.622064,196.368493 162.891103,84.149589 162.891103,84.149589 Z" fill="url(#linearGradient-35)"></path>
                                <polygon fill="url(#linearGradient-36)" points="17.2754448 0.116712329 0.87544484 9.57041096 73.7124555 15.4643836 90.1124555 6.01068493"></polygon>
                                <path d="M146.491103,93.6032877 L73.7124555,15.4060274 L43.772242,12.3715068 L0.87544484,9.51205479 C0.87544484,9.51205479 -10.797153,108.192329 73.6540925,212.883288 C158.222064,205.822192 146.491103,93.6032877 146.491103,93.6032877 Z" fill="url(#linearGradient-37)"></path>
                                <path d="M146.491103,93.6032877 L73.7124555,15.4060274 L0.933807829,9.51205479 C2.97651246,8.34493151 2.97651246,8.34493151 2.97651246,8.34493151 L76.747331,14.2972603 L149.525979,92.4945205 C149.525979,92.4945205 159.272598,186.272877 96.3572954,207.806301 C155.945907,184.405479 146.491103,93.6032877 146.491103,93.6032877 Z" fill="#FFFFFF"></path>
                            </g>
                            <path d="M137.678292,94.8287671 L72.1950178,24.5679452 L45.2896797,21.8252055 L6.77010676,19.2575342 C6.77010676,19.2575342 -3.73523132,107.958904 72.2533808,202.087397 C148.18363,195.726575 137.678292,94.8287671 137.678292,94.8287671 Z" id="Path" fill="#FFFFFF" opacity="0.2"></path>
                        </g>
                    </g>
                </g>
            </g>
        </g>
    </g>
</svg>